<svg version="1.1" id="Layer_1" xmlns="http://www.w3.org/2000/svg" xmlns:xlink="http://www.w3.org/1999/xlink" x="0px" y="0px"
	 width="100%" viewBox="0 0 1076 406" enable-background="new 0 0 1076 406" xml:space="preserve">
<path fill="#FFFFFF" opacity="1.000000" stroke="none" 
	d="
M695.000000,407.000000 
	C463.333344,407.000000 232.166672,407.000000 1.000000,407.000000 
	C1.000000,271.666656 1.000000,136.333328 1.000000,1.000000 
	C359.666656,1.000000 718.333313,1.000000 1077.000000,1.000000 
	C1077.000000,136.333328 1077.000000,271.666656 1077.000000,407.000000 
	C949.833313,407.000000 822.666687,407.000000 695.000000,407.000000 
M399.880402,207.362961 
	C414.134216,200.139313 428.350647,192.840042 442.674927,185.758957 
	C445.379791,184.421875 446.109955,182.724716 446.052277,179.913635 
	C445.836914,169.419067 445.912964,158.918152 445.656708,148.425064 
	C445.606567,146.372742 444.917236,144.149185 443.920135,142.335968 
	C434.863831,125.867294 425.732666,109.438690 416.442474,93.101227 
	C415.376129,91.225929 413.440918,89.515434 411.501862,88.523857 
	C403.954193,84.664284 396.238129,81.134613 388.592773,77.465363 
	C363.569580,65.455917 338.567902,53.401245 313.484100,41.519882 
	C311.991730,40.812992 309.578979,40.885185 308.057129,41.591545 
	C297.342743,46.564629 286.748627,51.796879 276.118164,56.950657 
	C254.256317,67.549538 232.374130,78.107094 210.569122,88.821655 
	C208.455231,89.860390 206.413742,91.588905 205.058792,93.506172 
	C202.869339,96.604263 201.212311,100.090874 199.448593,103.474991 
	C196.029419,110.035538 196.120117,109.923431 189.088791,106.855568 
	C187.379074,106.109596 184.799591,105.767288 183.232666,106.518028 
	C150.367935,122.264061 117.576302,138.163284 84.834999,154.164780 
	C82.889717,155.115463 80.977699,156.887878 79.912613,158.766815 
	C71.316368,173.931381 62.852268,189.172684 54.541462,204.495590 
	C53.001957,207.334000 51.552525,210.610123 51.409374,213.745758 
	C50.938534,224.058823 51.255970,234.405899 50.905899,244.727539 
	C50.784367,248.310913 52.121754,249.964828 55.191090,251.498337 
	C81.684372,264.735016 108.078224,278.170441 134.528503,291.493469 
	C191.992889,320.438324 249.487244,349.323761 306.905914,378.358887 
	C309.842896,379.844025 311.968750,379.614380 314.714874,378.192230 
	C326.690552,371.990356 338.771667,365.992004 350.817566,359.925812 
	C381.294037,344.578156 411.755524,329.200500 442.277954,313.944733 
	C445.026611,312.570892 446.155640,310.990326 446.072906,307.851776 
	C445.796326,297.359528 445.897919,286.857666 445.665100,276.363678 
	C445.623016,274.466675 445.019531,272.407288 444.106842,270.732635 
	C437.739563,259.049194 430.956482,247.585327 424.830963,235.779053 
	C419.082703,224.699936 413.208954,214.055954 399.850861,210.665085 
	C399.251617,210.512985 398.326965,209.991791 398.305237,209.600754 
	C398.272125,209.004959 398.896118,208.372620 399.880402,207.362961 
M620.441406,151.010437 
	C621.859619,150.899445 623.277832,150.788437 625.130981,150.643402 
	C625.130981,143.074570 624.916687,135.928543 625.220642,128.804626 
	C625.374573,125.197975 627.477112,122.176720 631.460815,122.326889 
	C635.585632,122.482376 636.112976,125.829353 636.087830,129.258789 
	C636.035767,136.361649 636.072144,143.465149 636.072144,150.656418 
	C639.716064,150.656418 642.759094,150.656418 646.686646,150.656418 
	C646.686646,143.021118 646.485840,135.728760 646.769775,128.455322 
	C646.915527,124.721916 649.238708,121.990692 653.221619,122.364441 
	C657.200562,122.737823 657.208435,126.231834 657.225159,129.283844 
	C657.264099,136.389832 657.237610,143.496201 657.237610,150.695023 
	C660.936279,150.695023 663.992004,150.695023 667.034668,150.695023 
	C667.034668,141.423126 667.248413,132.459564 666.946594,123.513412 
	C666.790405,118.884727 663.783325,116.076538 659.299072,114.786461 
	C653.528320,113.126266 648.987732,115.613678 644.824158,119.032303 
	C637.956299,112.877632 633.550476,112.731606 624.503357,118.175575 
	C622.883606,112.431374 618.612000,115.990555 615.258545,115.124985 
	C615.258545,127.293716 615.258545,138.986710 615.258545,151.010422 
	C616.892151,151.010422 618.196777,151.010422 620.441406,151.010437 
M667.423096,220.509247 
	C667.306824,215.680908 667.340271,210.843048 667.033386,206.026855 
	C666.707397,200.910080 663.813782,197.048462 658.794006,196.923050 
	C654.004456,196.803406 649.168762,198.530777 643.279053,199.650452 
	C637.955078,194.865082 633.809082,194.731049 624.547485,200.107941 
	C622.732300,194.637390 618.592957,197.861084 615.309631,197.224792 
	C615.309631,209.373154 615.309631,221.080826 615.309631,232.713150 
	C618.625732,232.713150 621.555786,232.713150 624.915771,232.713150 
	C624.915771,227.129196 624.828064,221.829742 624.952820,216.535324 
	C625.015015,213.896515 624.787109,210.904236 625.942383,208.740234 
	C626.990479,206.776932 629.790649,204.548691 631.717102,204.637360 
	C633.237000,204.707321 634.928589,207.969299 635.920654,210.103302 
	C636.561157,211.480804 636.091125,213.381485 636.093079,215.047714 
	C636.099915,220.968018 636.095764,226.888321 636.095764,232.712860 
	C639.829102,232.712860 642.762634,232.712860 646.534607,232.712860 
	C646.534607,225.301788 646.330872,218.170837 646.616638,211.059540 
	C646.770081,207.240067 648.802124,204.017365 653.116089,204.363419 
	C657.438660,204.710159 657.202209,208.526291 657.230469,211.691818 
	C657.292480,218.645813 657.249695,225.600723 657.249695,232.713257 
	C660.905762,232.713257 663.965637,232.713257 667.422363,232.713257 
	C667.422363,228.777145 667.422363,225.133713 667.423096,220.509247 
M693.205872,204.351959 
	C696.665466,205.316162 697.091919,208.005249 697.078064,211.019226 
	C697.044556,218.273941 697.067139,225.528915 697.067139,232.734863 
	C700.782715,232.734863 703.716431,232.734863 707.080811,232.734863 
	C707.080811,228.346283 706.968140,224.217422 707.114624,220.097809 
	C707.244019,216.456635 707.005188,212.590714 708.190918,209.275391 
	C708.943787,207.170120 711.854065,204.804184 714.065430,204.498672 
	C717.247925,204.059036 718.162659,207.164215 718.184082,210.088913 
	C718.199890,212.252518 718.262268,214.415894 718.267273,216.579453 
	C718.279724,221.982544 718.271362,227.385681 718.271362,232.774872 
	C722.071899,232.774872 725.016785,232.774872 728.001587,232.774872 
	C728.001587,223.418671 728.241211,214.288452 727.897949,205.180222 
	C727.732544,200.790680 724.724487,198.066528 720.449402,196.828491 
	C714.709229,195.166199 710.068970,197.348846 705.990784,201.027924 
	C698.742920,194.903397 694.223206,194.757126 685.637573,200.178741 
	C683.737427,194.340225 679.535034,197.884308 676.221313,197.364471 
	C676.221313,209.448044 676.221313,221.027817 676.221313,232.624207 
	C679.567139,232.624207 682.605164,232.624207 685.994934,232.624207 
	C685.994934,225.766647 685.919495,219.291504 686.021423,212.819138 
	C686.089600,208.491928 687.361938,204.881561 693.205872,204.351959 
M563.868591,303.639374 
	C559.356384,292.377563 554.560852,281.217529 550.461182,269.807495 
	C548.636047,264.727814 545.032715,266.193481 541.626770,265.824371 
	C538.389343,265.473511 536.992126,266.889252 535.901733,269.854187 
	C531.944214,280.615082 527.675903,291.261566 523.533752,301.954681 
	C521.933411,306.085999 520.357178,310.226624 518.523193,315.006165 
	C521.819885,315.006165 524.351379,315.325012 526.744629,314.887482 
	C528.198669,314.621674 530.433044,313.352509 530.615601,312.251831 
	C531.883301,304.609589 536.576782,302.821442 543.391663,303.966370 
	C544.524963,304.156769 545.752441,304.175690 546.876831,303.961121 
	C551.303284,303.116394 553.838440,304.985382 554.616272,309.276489 
	C555.501892,314.162842 558.429260,315.765808 563.114014,315.042694 
	C564.557312,314.819885 566.064087,315.008057 568.231934,315.008057 
	C566.721863,311.091278 565.425049,307.727570 563.868591,303.639374 
M541.859253,183.049728 
	C535.005371,183.803421 529.281677,186.702759 525.896484,192.816071 
	C520.353271,202.826660 520.162537,213.280197 525.430786,223.382263 
	C529.669006,231.509125 539.681091,235.467972 549.049316,233.599182 
	C557.687317,231.876053 563.256165,226.154648 564.557983,217.500412 
	C563.827637,217.235794 563.051880,216.981903 562.296875,216.676620 
	C558.143372,214.997223 554.423889,213.315079 552.361145,219.812820 
	C551.193787,223.490005 547.188477,224.918198 543.258911,224.611496 
	C539.111328,224.287766 535.978516,221.986710 534.507263,218.114731 
	C532.058044,211.669205 531.926636,205.022308 534.540283,198.612778 
	C537.073975,192.399445 544.689270,189.990707 549.930847,193.745178 
	C551.988708,195.219162 553.358765,197.653412 555.390686,200.063934 
	C558.244568,199.304184 561.481140,198.442566 564.755310,197.570923 
	C560.862549,186.366150 555.358887,182.842239 541.859253,183.049728 
M554.875122,149.626205 
	C560.433105,146.566483 563.555054,141.849136 564.917419,135.436249 
	C561.380127,134.400635 558.266479,133.489044 555.042603,132.545197 
	C554.266479,134.276535 553.760193,135.482010 553.192749,136.658005 
	C551.267639,140.648224 547.963379,142.806900 543.648315,142.653076 
	C539.335327,142.499344 535.993958,140.124283 534.471313,136.041016 
	C532.069824,129.600845 531.911682,122.956696 534.562012,116.569054 
	C537.283691,110.009430 545.656494,107.861916 550.761597,112.316498 
	C552.447327,113.787445 553.541260,115.936607 555.161804,118.120667 
	C558.244629,117.303223 561.479309,116.445511 564.750854,115.578003 
	C561.002319,104.723724 555.065979,100.715858 543.807678,100.981659 
	C533.664978,101.221123 525.635986,107.143097 523.232971,116.689430 
	C522.314270,120.338966 522.038635,124.237839 522.055237,128.020523 
	C522.135620,146.337997 536.874817,156.334579 554.875122,149.626205 
M711.288574,133.417450 
	C710.309692,116.142197 700.508423,109.943428 686.778198,116.400780 
	C683.513672,115.823250 680.249084,115.245720 676.534790,114.588623 
	C676.534790,131.745972 676.534790,147.927536 676.534790,164.250427 
	C679.824219,164.250427 682.752258,164.250427 686.307617,164.250427 
	C686.307617,158.818298 686.307617,153.643372 686.307617,147.781448 
	C692.467896,152.453247 698.256714,153.346786 704.091064,149.398956 
	C709.382874,145.818237 711.142578,140.369370 711.288574,133.417450 
M919.510559,315.224030 
	C927.734863,316.884216 934.809814,313.522644 936.651550,305.607056 
	C937.921753,300.147400 938.115112,293.897736 936.787537,288.492920 
	C934.491516,279.145233 924.508179,275.693604 915.982056,280.282318 
	C915.163452,280.722870 914.348999,281.171112 912.857178,281.983643 
	C912.857178,276.223267 912.857178,271.158020 912.857178,266.141602 
	C909.428223,266.141602 906.508484,266.141602 903.399963,266.141602 
	C903.399963,282.527191 903.399963,298.584534 903.399963,315.564270 
	C907.162292,314.850677 910.440918,314.228821 913.719543,313.606964 
	C913.636047,313.159943 913.552551,312.712921 913.469055,312.265900 
	C915.226868,313.179504 916.984619,314.093109 919.510559,315.224030 
M684.342834,327.137207 
	C685.530823,325.761017 687.212219,324.575592 687.829590,322.978790 
	C693.386353,308.606171 698.756409,294.161346 704.222839,279.627136 
	C694.002197,278.062805 694.010803,278.065613 691.099976,286.951111 
	C689.473877,291.914886 687.813538,296.867401 685.774048,303.014221 
	C683.155273,295.190063 681.091980,288.703033 678.755249,282.316010 
	C678.287842,281.038391 676.904724,279.424500 675.723206,279.216034 
	C673.078796,278.749390 670.295471,279.070007 667.082336,279.070007 
	C667.950806,281.626343 668.484009,283.351959 669.119080,285.039124 
	C672.514221,294.058014 675.999023,303.043701 679.321167,312.089233 
	C681.132019,317.019928 678.622742,320.705963 673.450806,321.057678 
	C672.192749,321.143250 670.934265,321.222412 669.395142,321.322876 
	C669.733215,323.977936 670.019958,326.229797 670.453857,329.637146 
	C675.081909,328.922241 679.393433,328.256256 684.342834,327.137207 
M630.209839,314.995178 
	C631.989136,314.120636 633.768433,313.246094 635.547729,312.371552 
	C635.481384,312.862122 635.414978,313.352692 635.348572,313.843262 
	C639.015747,314.347321 642.682922,314.851410 646.250000,315.341736 
	C645.716431,310.678192 645.110596,306.925262 644.904480,303.150482 
	C644.696106,299.331940 644.926819,295.491394 644.888672,291.661224 
	C644.797119,282.476471 642.042725,279.331451 632.961060,278.482513 
	C630.184326,278.222931 627.321960,278.501434 624.533203,278.827576 
	C618.704834,279.509277 615.658997,283.169922 614.163086,288.830719 
	C618.346069,289.610657 622.069824,292.079742 625.630859,287.428986 
	C626.577515,286.192596 630.276367,286.550812 632.524170,287.039246 
	C633.651550,287.284241 634.357849,289.467041 635.609619,291.290771 
	C629.746643,292.770172 624.826782,293.674072 620.144165,295.272919 
	C613.271301,297.619537 610.804260,305.393829 615.061401,311.119385 
	C618.694458,316.005554 623.853577,316.600861 630.209839,314.995178 
M882.324158,314.072296 
	C883.327393,313.495819 884.330627,312.919373 885.333801,312.342926 
	C885.280212,312.845062 885.226624,313.347198 885.173035,313.849335 
	C888.889587,314.366058 892.606079,314.882812 895.519714,315.287933 
	C895.293884,306.498260 895.120728,298.416504 894.868652,290.337189 
	C894.632690,282.772308 892.043884,279.706207 884.610046,278.725525 
	C881.518127,278.317657 878.307800,278.427826 875.186523,278.702515 
	C869.164917,279.232452 865.706848,282.797363 864.185730,288.802551 
	C868.393433,289.735962 871.972351,291.720001 875.891541,287.249359 
	C878.845764,283.879517 884.002686,286.573792 884.638367,291.530945 
	C879.878662,292.730743 874.972229,293.644501 870.289917,295.223053 
	C863.168396,297.624054 860.840515,305.539948 865.216675,311.439819 
	C868.400391,315.731964 874.335083,316.810303 882.324158,314.072296 
M885.419678,207.761261 
	C887.168091,204.453064 890.031372,203.303482 893.371704,204.539597 
	C894.970154,205.131088 896.106201,206.972061 898.351013,209.099411 
	C892.084351,210.668060 887.388611,211.642761 882.821777,213.039093 
	C877.513367,214.662155 874.832764,218.483643 875.090027,223.340408 
	C875.379150,228.796799 878.589355,232.941772 884.354614,233.315292 
	C888.748413,233.599945 893.252686,232.180237 896.395996,231.713547 
	C901.015076,232.346634 904.682556,232.849274 907.497864,233.235138 
	C907.283691,224.823914 907.046814,217.233643 906.908203,209.641586 
	C906.740601,200.458038 904.040710,197.323822 894.931702,196.480011 
	C892.153503,196.222672 889.289917,196.505234 886.500183,196.834595 
	C880.671997,197.522659 877.649658,201.189011 876.093872,207.144730 
	C879.279785,207.516098 882.048523,207.838821 885.419678,207.761261 
M781.653625,123.080261 
	C782.928528,126.379074 788.214905,126.892281 791.256775,124.674927 
	C793.160645,123.287201 795.976074,122.528282 798.337036,122.622559 
	C799.754211,122.679146 801.084106,124.920670 803.405884,127.056633 
	C796.973877,128.686386 792.121460,129.691330 787.417664,131.169128 
	C782.435303,132.734390 779.875122,136.571899 780.089661,141.263931 
	C780.331909,146.558792 783.355408,150.748138 788.794556,151.182220 
	C793.332947,151.544403 798.004211,150.242172 801.789551,149.778412 
	C805.963501,150.357468 809.657776,150.869980 813.257446,151.369354 
	C812.724304,146.749664 812.106567,142.995804 811.905884,139.219757 
	C811.694031,135.232941 812.277710,131.173538 811.769470,127.242073 
	C811.341980,123.935875 810.758789,119.890015 808.653870,117.701317 
	C802.037537,110.821480 786.368896,113.876907 781.653625,123.080261 
M944.846924,124.956017 
	C948.788818,126.062279 952.241943,127.242233 955.942322,123.215599 
	C958.994812,119.893913 964.085022,122.632919 964.588928,127.538109 
	C959.823059,128.742523 954.937500,129.731293 950.217285,131.237885 
	C945.306152,132.805389 942.791138,136.776321 943.101257,141.476059 
	C943.438538,146.587585 946.339905,150.694473 951.516113,151.114288 
	C956.211670,151.495117 961.039001,150.251694 966.379517,149.661209 
	C968.589233,152.948364 972.747803,150.478058 976.180603,150.745041 
	C975.705017,146.533813 975.100769,142.779877 974.904236,139.004684 
	C974.696594,135.017166 975.295654,130.952408 974.760193,127.028107 
	C974.311279,123.737717 973.651794,119.657951 971.495972,117.565620 
	C963.750610,110.048492 947.843872,114.363846 944.846924,124.956017 
M893.452393,143.773651 
	C894.087769,142.425186 894.930420,141.134338 895.323975,139.718658 
	C897.409302,132.216553 896.878418,125.114212 890.996033,119.398239 
	C885.121399,113.689873 878.058838,113.104439 870.619568,115.737335 
	C863.298889,118.328217 860.240479,124.133911 859.482971,131.406509 
	C858.601562,139.867920 862.663391,147.134827 869.761414,150.121506 
	C878.493774,153.795898 886.492554,151.817108 893.452393,143.773651 
M955.695435,212.147400 
	C956.684265,216.906693 956.684570,222.193909 958.881653,226.307938 
	C962.664368,233.391281 973.459167,235.770538 981.481689,232.422134 
	C989.643372,229.015625 993.800293,220.328506 991.986084,210.470123 
	C990.497681,202.382462 983.129211,196.394409 974.480225,196.243973 
	C964.682495,196.073517 957.963196,201.513199 955.695435,212.147400 
M607.167969,140.380859 
	C607.062561,135.184570 608.190552,129.567337 606.591064,124.880951 
	C603.408875,115.557198 592.461182,111.987442 582.322937,115.811165 
	C573.478394,119.146965 569.247070,129.670410 572.549622,140.055359 
	C574.995972,147.748016 580.859375,151.067657 588.308228,151.750336 
	C596.812683,152.529800 603.075439,148.796646 607.167969,140.380859 
M605.866028,225.140747 
	C606.692810,222.127487 607.969727,219.157257 608.262756,216.092957 
	C609.183044,206.468597 603.464050,198.871536 594.083435,196.702484 
	C585.003174,194.602875 576.232300,199.025452 572.872986,207.397430 
	C569.284180,216.341553 572.232727,226.725708 579.770020,231.140472 
	C586.781677,235.247391 598.580200,235.783035 605.866028,225.140747 
M764.972839,292.456543 
	C766.199524,296.876862 769.747070,298.644165 773.656738,299.851532 
	C777.141296,300.927643 780.734558,301.657654 784.199463,302.787018 
	C785.084167,303.075378 786.231445,304.299561 786.229675,305.091461 
	C786.227783,305.936584 785.017029,307.489685 784.318848,307.498260 
	C781.454834,307.533447 777.047058,308.164673 775.992371,306.644470 
	C772.115417,301.056122 767.972229,303.754883 763.404602,304.638275 
	C765.183105,310.993744 769.243347,314.111237 775.126526,315.174896 
	C782.066956,316.429688 788.869141,316.577972 794.053406,310.797913 
	C799.140686,305.126221 797.378540,297.348602 790.357239,294.462555 
	C786.699707,292.959167 782.718933,292.258820 778.933167,291.043243 
	C777.192566,290.484344 775.569824,289.558685 773.006409,288.397400 
	C777.200439,285.303131 781.335632,284.454620 783.846802,287.118744 
	C787.970154,291.493195 791.378662,288.831390 797.013977,287.634827 
	C793.690552,284.401520 791.674255,280.875610 788.875244,280.070435 
	C784.264282,278.743958 779.063232,278.469086 774.262695,279.035919 
	C767.123535,279.878876 764.307739,284.286255 764.972839,292.456543 
M716.497009,303.660187 
	C713.209778,303.660187 709.922546,303.660187 706.128845,303.660187 
	C708.254089,311.176117 712.485718,314.262299 718.608398,315.261383 
	C725.615784,316.404877 732.398926,316.432007 737.393738,310.386383 
	C742.097168,304.693390 740.178040,297.221436 733.285828,294.423065 
	C729.612183,292.931458 725.620544,292.240601 721.827698,291.016968 
	C720.109619,290.462677 718.526062,289.491241 716.243774,288.405762 
	C720.300049,285.159790 724.511658,284.539276 726.966858,287.198853 
	C731.153809,291.734344 734.473938,288.380737 738.399109,288.192078 
	C738.106812,286.935211 738.073425,286.413696 737.869263,285.970856 
	C734.784058,279.277679 727.636658,276.777832 717.504150,278.826385 
	C711.479065,280.044464 707.848083,283.770081 707.574158,289.015228 
	C707.312927,294.015472 709.934265,297.548370 715.773682,299.516296 
	C719.390625,300.735229 723.183228,301.432007 726.803955,302.641571 
	C727.833374,302.985443 729.258789,304.357635 729.201050,305.165039 
	C729.133301,306.111115 727.768921,307.518677 726.750000,307.743805 
	C722.889771,308.596649 719.016968,308.839020 716.497009,303.660187 
M606.159729,292.639648 
	C605.905029,282.274658 601.782166,277.431671 593.336121,278.407288 
	C589.870728,278.807556 586.569702,280.630341 583.205872,281.801880 
	C581.643311,276.187042 577.242371,280.051910 573.667358,279.243530 
	C573.667358,291.365295 573.667358,302.933136 573.667358,314.735779 
	C576.965576,314.735779 580.022400,314.735779 583.666565,314.735779 
	C583.666565,308.181763 583.527832,301.889465 583.706055,295.606171 
	C583.880371,289.458984 586.808777,285.645996 590.965271,286.237885 
	C596.424438,287.015198 596.136047,291.465668 596.162659,295.490448 
	C596.205200,301.912720 596.174072,308.335449 596.174072,314.723755 
	C599.863403,314.723755 602.792419,314.723755 606.163574,314.723755 
	C606.163574,307.497742 606.163574,300.551086 606.159729,292.639648 
M933.398987,151.004532 
	C934.319885,150.021133 936.015259,149.055878 936.038757,148.051498 
	C936.221619,140.239487 936.252625,132.414078 935.985046,124.604660 
	C935.797546,119.132149 932.946228,116.172676 927.713684,114.773903 
	C922.212280,113.303276 917.650879,115.310280 913.479675,118.483543 
	C911.526550,112.406013 907.252502,115.902634 903.661743,115.354668 
	C903.661743,127.412613 903.661743,138.981552 903.661743,150.710358 
	C906.998596,150.710358 910.055908,150.710358 913.670532,150.710358 
	C913.670532,144.126785 913.534241,137.831146 913.709961,131.544220 
	C913.875610,125.619057 916.480591,122.261993 920.539978,122.159157 
	C924.261841,122.064873 926.108521,125.074905 926.162964,131.556229 
	C926.216736,137.964447 926.174744,144.373459 926.174744,151.008194 
	C928.815613,151.008194 930.636292,151.008194 933.398987,151.004532 
M781.692017,233.007965 
	C783.811890,233.007965 785.931763,233.007965 788.662964,233.007965 
	C788.662964,226.238113 788.525940,219.946152 788.701782,213.662933 
	C788.874695,207.483276 791.748962,203.685913 795.913757,204.237015 
	C801.393799,204.962173 801.136475,209.408661 801.162537,213.442627 
	C801.204102,219.870773 801.173645,226.299408 801.173645,232.736755 
	C804.834473,232.736755 807.763367,232.736755 810.973694,232.736755 
	C810.973694,223.530106 811.242920,214.578537 810.860352,205.654907 
	C810.668274,201.175095 807.820374,198.153763 803.243896,196.878311 
	C797.579895,195.299759 792.823242,197.098114 788.418823,200.552887 
	C786.619934,194.202698 782.229248,198.065857 778.403381,197.184464 
	C778.403381,208.756470 778.353882,219.705276 778.506287,230.651276 
	C778.517334,231.445374 779.995850,232.219025 781.692017,233.007965 
M1021.915771,232.730667 
	C1024.848267,232.730667 1027.780640,232.730667 1030.971802,232.730667 
	C1030.971802,223.511215 1031.244385,214.557861 1030.857178,205.633133 
	C1030.662964,201.155457 1027.801514,198.142410 1023.223572,196.872742 
	C1017.558044,195.301437 1012.809204,197.127441 1008.511963,200.464355 
	C1006.534607,194.441986 1002.264099,197.893936 998.658936,197.297699 
	C998.658936,209.400818 998.658936,220.971161 998.658936,232.714294 
	C1001.994751,232.714294 1005.051392,232.714294 1008.775940,232.714294 
	C1008.775940,225.636795 1008.598816,218.840332 1008.835083,212.058243 
	C1009.006836,207.126312 1012.259399,203.699158 1016.026855,204.223969 
	C1020.514648,204.849075 1021.124146,208.323563 1021.152344,212.056091 
	C1021.202576,218.707489 1021.282776,225.358688 1021.915771,232.730667 
M759.315186,197.987564 
	C759.202576,204.472610 759.171997,210.960449 758.951660,217.441833 
	C758.770569,222.769913 755.894958,226.172791 751.809143,225.930634 
	C746.602600,225.622086 746.583069,221.579453 746.515564,217.889435 
	C746.391357,211.093521 746.480103,204.293716 746.480103,197.457947 
	C742.774719,197.457947 739.732727,197.457947 736.431213,197.457947 
	C736.431213,205.975906 735.984741,214.133362 736.544128,222.221237 
	C737.243896,232.338104 746.267700,236.839279 755.357727,232.080444 
	C756.779724,231.336014 758.102722,230.402374 759.264099,229.684433 
	C761.241516,235.313492 765.422302,232.181808 768.690918,232.946320 
	C768.690918,220.795212 768.690918,209.089020 768.690918,197.335037 
	C765.546692,197.335037 762.750183,197.335037 759.315186,197.987564 
M740.053040,119.712326 
	C739.988831,125.537712 740.152283,131.377518 739.784363,137.183655 
	C739.517761,141.392105 736.139648,144.276215 732.558899,143.945084 
	C728.407166,143.561172 727.706482,140.522049 727.561462,137.137573 
	C727.497314,135.640930 727.413452,134.143494 727.408875,132.646210 
	C727.391052,126.885109 727.401611,121.123924 727.401611,115.356567 
	C723.705444,115.356567 720.779053,115.356567 717.962158,115.356567 
	C717.962158,124.909317 717.727905,134.173660 718.071350,143.416565 
	C718.219727,147.411102 721.214966,149.819824 724.986023,151.101944 
	C730.793274,153.076370 735.687073,150.948257 740.312866,147.552216 
	C742.055481,153.925476 746.479797,149.962006 749.607788,150.821152 
	C749.607788,138.626846 749.607788,126.925728 749.607788,115.061729 
	C747.348938,115.061729 745.508606,115.199326 743.696838,115.030212 
	C740.817993,114.761497 739.699402,115.996536 740.053040,119.712326 
M847.322021,232.470016 
	C860.318665,236.251923 869.596375,231.593063 870.800659,220.477676 
	C869.380310,220.180206 867.946899,219.826385 866.494446,219.590302 
	C864.914490,219.333496 863.316711,219.186081 861.726746,218.990967 
	C861.945435,219.535568 862.164185,220.080154 862.382935,220.624756 
	C859.977661,222.171448 857.720703,224.646637 855.134399,225.059570 
	C850.612488,225.781540 848.009644,221.795654 847.891357,215.282455 
	C847.762329,208.175323 849.974548,204.586472 854.821167,204.698395 
	C856.449707,204.736008 858.208252,205.753677 859.609619,206.744568 
	C860.576599,207.428329 861.031982,208.835693 861.742371,209.961472 
	C864.875122,209.304459 867.753418,208.700806 870.854980,208.050339 
	C869.152527,201.847214 865.778198,198.053711 859.719116,196.913315 
	C849.466248,194.983597 841.902588,198.535690 838.819763,206.774582 
	C835.059326,216.824310 838.170288,226.923309 847.322021,232.470016 
M851.404053,306.102203 
	C845.819397,306.102203 840.234741,306.102203 834.039795,306.102203 
	C834.039795,292.383728 834.039795,279.360443 834.039795,266.462280 
	C830.346252,266.462280 827.295593,266.462280 824.221802,266.462280 
	C824.221802,282.769073 824.221802,298.665680 824.221802,314.646942 
	C835.857910,314.646942 847.218079,314.646942 858.563721,314.646942 
	C858.563721,311.701141 858.563721,309.127350 858.563721,306.102264 
	C856.289917,306.102264 854.330444,306.102264 851.404053,306.102203 
M776.979370,148.254669 
	C776.741455,146.518600 776.503540,144.782547 776.265625,143.046478 
	C775.853882,143.365509 775.442200,143.684540 775.030457,144.003571 
	C773.365723,142.753677 770.405029,141.633682 770.264465,140.231018 
	C769.708435,134.684158 770.036194,129.048721 770.036194,123.434464 
	C772.388489,123.161293 774.140686,122.957809 775.802002,122.764885 
	C775.802002,120.061134 775.802002,117.687126 775.802002,115.251961 
	C773.750366,115.102951 772.129944,114.985268 769.839355,114.818909 
	C769.839355,110.847740 769.839355,107.020920 769.839355,102.518456 
	C764.647400,105.784981 758.019409,106.522972 760.049316,114.242996 
	C756.288147,115.543419 754.420044,119.955490 756.393921,122.706856 
	C757.452209,123.001450 758.656006,123.336548 760.072693,123.730896 
	C760.072693,130.432693 759.961670,136.921616 760.117065,143.404160 
	C760.201233,146.914841 761.379150,150.118927 765.267944,151.056244 
	C769.378113,152.046875 773.659973,153.202942 776.979370,148.254669 
M926.003113,216.418228 
	C926.003113,212.800629 926.003113,209.183029 926.003113,205.343521 
	C928.258484,205.160950 930.009705,205.019196 931.868530,204.868729 
	C931.868530,202.182922 931.868530,199.808853 931.868530,197.341675 
	C929.768860,197.128448 928.020813,196.950943 925.833008,196.728775 
	C925.833008,192.700470 925.833008,188.988571 925.833008,185.125839 
	C917.004456,188.453156 916.534424,188.994766 915.543518,196.767639 
	C909.398682,196.968109 912.545105,201.452682 912.707947,204.035751 
	C914.275330,205.781311 915.735352,207.694687 915.880798,209.703247 
	C916.300415,215.497192 915.764465,221.377213 916.409363,227.133163 
	C917.033813,232.706863 922.899414,235.113937 929.849060,233.344879 
	C935.737122,231.846054 932.044128,228.112793 932.199829,225.189621 
	C926.014099,225.026398 926.014099,225.026398 926.003113,216.418228 
M835.466553,123.066765 
	C836.211182,120.614906 836.955750,118.163055 837.766724,115.492661 
	C834.707397,115.114426 832.966370,114.899170 830.768677,114.627457 
	C830.768677,110.645004 830.768677,106.944473 830.768677,102.604317 
	C825.775879,105.792992 819.011536,106.337105 820.279480,114.117393 
	C818.667847,115.700874 817.094055,117.602440 817.032471,119.551765 
	C816.983032,121.118835 818.764343,122.743713 819.733337,124.342941 
	C820.153809,124.178757 820.574219,124.014572 820.994690,123.850388 
	C820.994690,127.662170 820.894592,131.477341 821.022949,135.284805 
	C821.151062,139.086868 821.007202,143.002319 821.889160,146.648773 
	C823.026978,151.352448 830.215149,153.514038 835.899658,150.997391 
	C840.335510,149.033554 837.158386,145.840530 837.093384,142.565460 
	C831.274536,144.575409 830.741150,141.435059 830.964233,137.247894 
	C831.158752,133.596283 831.164612,129.916946 830.954407,126.267113 
	C830.789490,123.401970 832.195740,122.836052 835.466553,123.066765 
M990.183105,101.634354 
	C988.089539,101.634354 985.995911,101.634354 983.870239,101.634354 
	C983.870239,118.497406 983.870239,134.635422 983.870239,150.781052 
	C987.242371,150.781052 990.178040,150.781052 993.639465,150.781052 
	C993.639465,134.974136 993.675232,119.403740 993.528442,103.835060 
	C993.521484,103.097137 991.895630,102.374474 990.183105,101.634354 
M654.034912,314.671692 
	C657.103149,314.671692 660.171326,314.671692 663.417603,314.671692 
	C663.417603,298.337036 663.417603,282.307831 663.417603,265.955933 
	C660.122498,265.955933 657.076843,265.955933 653.586182,265.955933 
	C653.586182,282.123047 653.586182,298.008820 654.034912,314.671692 
M938.436646,205.624817 
	C938.436646,214.672470 938.436646,223.720108 938.436646,232.810425 
	C942.185486,232.810425 945.128845,232.810425 948.369141,232.810425 
	C948.369141,220.905533 948.369141,209.213043 948.369141,197.418945 
	C945.039124,197.418945 942.008240,197.418945 938.437256,197.418945 
	C938.437256,200.073883 938.437256,202.369202 938.436646,205.624817 
M753.455444,279.047058 
	C751.671875,279.047058 749.888245,279.047058 747.772827,279.047058 
	C747.772827,291.282806 747.772827,302.984863 747.772827,314.674316 
	C751.147339,314.674316 754.208496,314.674316 757.663757,314.674316 
	C757.663757,303.557831 757.752014,292.782959 757.519043,282.015076 
	C757.497192,281.003571 755.450317,280.035919 753.455444,279.047058 
M852.667969,124.555954 
	C852.667969,121.480606 852.667969,118.405266 852.667969,115.326088 
	C848.940674,115.326088 846.016541,115.326088 842.766724,115.326088 
	C842.766724,127.297417 842.766724,138.990280 842.766724,150.683563 
	C846.130310,150.683563 849.194397,150.683563 852.667664,150.683563 
	C852.667664,142.078964 852.667664,133.808731 852.667969,124.555954 
M830.668030,214.500885 
	C830.668030,208.771576 830.668030,203.042267 830.668030,197.333435 
	C826.924438,197.333435 824.002991,197.333435 820.762329,197.333435 
	C820.762329,209.308670 820.762329,220.997757 820.762329,232.679840 
	C824.139160,232.679840 827.201782,232.679840 830.667603,232.679840 
	C830.667603,226.729431 830.667603,221.114380 830.668030,214.500885 
M851.922241,110.733360 
	C852.231140,107.912979 852.540039,105.092598 852.885681,101.936180 
	C849.074341,101.936180 846.048279,101.936180 842.824280,101.936180 
	C842.824280,105.079590 842.824280,107.909966 842.824280,110.962692 
	C845.830688,110.962692 848.451477,110.962692 851.922241,110.733360 
M757.660278,272.300781 
	C757.660278,270.232147 757.660278,268.163483 757.660278,265.995514 
	C753.930359,265.995514 750.908020,265.995514 747.714600,265.995514 
	C747.714600,269.084930 747.714600,271.810150 747.714600,275.841705 
	C751.383301,274.853912 754.505432,274.013245 757.660278,272.300781 
M943.510742,183.633179 
	C941.931396,183.717972 940.352051,183.802765 938.750122,183.888779 
	C938.750122,187.173904 938.750122,189.907410 938.750122,192.706116 
	C942.110046,192.706116 945.153442,192.706116 948.994263,192.706116 
	C947.021240,189.433365 952.510071,183.548157 943.510742,183.633179 
M820.454712,186.055939 
	C820.454712,188.286865 820.454712,190.517807 820.454712,192.630219 
	C824.259033,192.630219 827.291931,192.630219 830.331665,192.630219 
	C830.331665,189.539017 830.331665,186.829849 830.331665,182.908508 
	C826.696838,183.772064 823.616577,184.503860 820.454712,186.055939 
z"/>
<path fill="#BE9587" opacity="1.000000" stroke="none" 
	d="
M399.560730,207.559387 
	C398.896118,208.372620 398.272125,209.004959 398.305237,209.600754 
	C398.326965,209.991791 399.251617,210.512985 399.850861,210.665085 
	C413.208954,214.055954 419.082703,224.699936 424.830963,235.779053 
	C430.956482,247.585327 437.739563,259.049194 444.106842,270.732635 
	C445.019531,272.407288 445.623016,274.466675 445.665100,276.363678 
	C445.897919,286.857666 445.796326,297.359528 446.072906,307.851776 
	C446.155640,310.990326 445.026611,312.570892 442.277954,313.944733 
	C411.755524,329.200500 381.294037,344.578156 350.817566,359.925812 
	C338.771667,365.992004 326.690552,371.990356 314.714874,378.192230 
	C311.968750,379.614380 309.842896,379.844025 306.905914,378.358887 
	C249.487244,349.323761 191.992889,320.438324 134.528503,291.493469 
	C108.078224,278.170441 81.684372,264.735016 55.191090,251.498337 
	C52.121754,249.964828 50.784367,248.310913 50.905899,244.727539 
	C51.255970,234.405899 50.938534,224.058823 51.409374,213.745758 
	C51.552525,210.610123 53.001957,207.334000 54.541462,204.495590 
	C62.852268,189.172684 71.316368,173.931381 79.912613,158.766815 
	C80.977699,156.887878 82.889717,155.115463 84.834999,154.164780 
	C117.576302,138.163284 150.367935,122.264061 183.232666,106.518028 
	C184.799591,105.767288 187.379074,106.109596 189.088791,106.855568 
	C196.120117,109.923431 196.029419,110.035538 199.448593,103.474991 
	C201.212311,100.090874 202.869339,96.604263 205.058792,93.506172 
	C206.413742,91.588905 208.455231,89.860390 210.569122,88.821655 
	C232.374130,78.107094 254.256317,67.549538 276.118164,56.950657 
	C286.748627,51.796879 297.342743,46.564629 308.057129,41.591545 
	C309.578979,40.885185 311.991730,40.812992 313.484100,41.519882 
	C338.567902,53.401245 363.569580,65.455917 388.592773,77.465363 
	C396.238129,81.134613 403.954193,84.664284 411.501862,88.523857 
	C413.440918,89.515434 415.376129,91.225929 416.442474,93.101227 
	C425.732666,109.438690 434.863831,125.867294 443.920135,142.335968 
	C444.917236,144.149185 445.606567,146.372742 445.656708,148.425064 
	C445.912964,158.918152 445.836914,169.419067 446.052277,179.913635 
	C446.109955,182.724716 445.379791,184.421875 442.674927,185.758957 
	C428.350647,192.840042 414.134216,200.139313 399.560730,207.559387 
M310.522949,137.144333 
	C311.918854,136.649506 313.395752,136.311081 314.698456,135.636322 
	C333.593506,125.849648 352.472992,116.032829 371.337708,106.187813 
	C376.989227,103.238419 382.583984,100.180237 388.670685,96.922523 
	C387.240875,95.994568 386.591003,95.467552 385.857910,95.112259 
	C361.790314,83.448257 337.742798,71.741592 313.580414,60.277039 
	C311.876068,59.468369 309.016632,59.840752 307.199402,60.714436 
	C285.472137,71.160378 263.842804,81.809990 242.181458,92.393204 
	C238.870804,94.010719 235.527817,95.562012 231.445190,97.502617 
	C258.170929,110.943596 283.972717,123.919884 310.522949,137.144333 
M236.533051,222.927826 
	C235.709885,223.536407 234.886719,224.144974 233.793060,224.953537 
	C234.830872,225.590286 235.362274,225.970322 235.938385,226.262039 
	C260.411591,238.653946 284.855988,251.104202 309.434021,263.284729 
	C311.207458,264.163635 314.302704,263.748840 316.201691,262.787079 
	C333.867615,253.839798 351.419037,244.665649 368.974457,235.501373 
	C375.393799,232.150345 381.734894,228.649323 388.866669,224.810303 
	C386.480499,223.534119 384.938843,222.641037 383.340363,221.865067 
	C362.248444,211.626038 341.037872,201.622253 320.117706,191.044067 
	C313.812683,187.855957 308.396698,186.529099 302.244965,190.894409 
	C299.433014,192.889816 296.017120,194.034683 292.873657,195.562286 
	C274.314301,204.581467 255.754501,213.599747 236.533051,222.927826 
M242.659103,173.153534 
	C249.485153,169.515381 256.311218,165.877213 263.674408,161.952759 
	C262.023834,160.930527 261.113464,160.249222 260.108978,159.761856 
	C236.332809,148.225555 212.574478,136.651337 188.703751,125.313774 
	C186.982620,124.496307 184.119720,124.785515 182.308746,125.650764 
	C158.445374,137.052094 134.672836,148.643661 110.893143,160.219620 
	C109.980705,160.663818 109.225357,161.430710 108.139000,162.239059 
	C133.060760,174.889587 157.541199,187.217361 181.897842,199.785049 
	C185.598190,201.694397 188.431870,201.503342 192.013840,199.592880 
	C208.597183,190.748215 225.325806,182.175919 242.659103,173.153534 
M75.348793,201.833878 
	C74.169556,204.152573 72.990311,206.471283 71.614281,209.176910 
	C106.818062,226.723145 141.530121,244.024277 177.002914,261.704590 
	C177.002914,247.140381 176.879883,233.681778 177.090515,220.228409 
	C177.142380,216.916611 176.114273,215.252304 173.154053,213.784760 
	C147.253311,200.944305 121.438980,187.929550 95.591362,174.981796 
	C94.304153,174.337006 92.946175,173.833496 91.400841,173.169540 
	C86.057198,182.717010 80.886543,191.955399 75.348793,201.833878 
M289.529205,272.113495 
	C266.512573,260.542175 243.479431,249.003418 220.501251,237.356247 
	C217.791534,235.982742 216.191071,235.854782 214.620712,238.970917 
	C211.487457,245.188416 207.912354,251.182175 204.565125,257.293213 
	C201.981262,262.010559 199.466675,266.765839 196.784256,271.759308 
	C231.998520,289.316528 266.582275,306.559357 302.002869,324.219421 
	C302.002869,312.827423 301.207001,302.313995 302.228027,291.980103 
	C303.237213,281.765533 300.480194,275.096985 289.529205,272.113495 
M319.000336,283.919525 
	C319.000336,297.149567 319.000336,310.379608 319.000336,324.436249 
	C354.854523,306.579987 389.868225,289.142303 425.125275,271.583435 
	C419.318634,261.239929 413.748383,251.414993 408.277832,241.534866 
	C405.185516,235.949921 405.218262,235.829651 399.390228,238.845596 
	C373.552734,252.216156 347.725891,265.607697 321.963135,279.121185 
	C320.653198,279.808289 319.974731,281.699219 319.000336,283.919525 
M343.518036,183.898514 
	C344.595001,183.477829 345.710236,183.134720 346.743225,182.624908 
	C365.101532,173.564285 383.454834,164.493500 401.797882,155.402023 
	C409.530487,151.569458 417.236847,147.683975 425.200378,143.699875 
	C418.455261,131.613205 411.922913,119.907791 405.276123,107.997345 
	C404.021759,108.563995 403.108551,108.927803 402.239075,109.376389 
	C379.020050,121.355515 355.790070,133.313522 332.603638,145.355423 
	C328.062439,147.713913 321.967834,149.393219 319.726654,153.222000 
	C317.458313,157.097214 319.262115,163.261826 318.931000,168.401001 
	C318.736847,171.413864 319.944458,172.829941 322.554962,174.011185 
	C329.368683,177.094299 336.056061,180.456635 343.518036,183.898514 
M266.609192,338.825104 
	C278.159271,344.687012 289.709381,350.548920 302.015198,356.794373 
	C302.015198,353.820831 301.761566,352.120544 302.060669,350.523773 
	C303.149719,344.709656 300.604431,341.790161 295.356445,339.240051 
	C262.747009,323.394287 230.324280,307.164368 197.834885,291.071411 
	C196.452316,290.386566 195.023087,289.795837 193.094299,288.926270 
	C193.094299,291.468719 193.351624,293.174591 193.047607,294.773743 
	C192.000946,300.279327 194.533249,302.854584 199.424759,305.218292 
	C221.751678,316.007538 243.847443,327.275116 266.609192,338.825104 
M362.998260,321.489014 
	C351.695251,327.139557 340.391571,332.788727 329.089478,338.441010 
	C318.594543,343.689575 318.592377,343.691132 319.067780,355.460876 
	C319.078217,355.719116 319.370239,355.965973 319.796570,356.635101 
	C325.945618,353.490051 332.108521,350.299286 338.304962,347.175171 
	C367.242432,332.585785 396.197937,318.032135 425.106812,303.386383 
	C426.569702,302.645233 428.557007,301.298706 428.748108,300.004852 
	C429.258240,296.550568 428.921722,292.971252 428.921722,288.725494 
	C406.496460,299.862579 385.076935,310.500214 362.998260,321.489014 
M77.591141,230.955109 
	C74.669998,229.574615 71.748856,228.194138 68.654282,226.731674 
	C66.958023,238.330429 66.975517,238.295792 76.293999,243.002396 
	C99.131927,254.537399 121.941849,266.127869 144.784119,277.654266 
	C154.960159,282.789154 165.186966,287.823425 176.133484,293.273132 
	C176.133484,290.961975 175.742828,289.233124 176.200806,287.769867 
	C178.233032,281.276947 174.524689,278.819275 169.389389,276.311401 
	C138.944702,261.443420 108.631653,246.305847 77.591141,230.955109 
M212.045563,117.244835 
	C218.826797,120.679321 225.558945,124.215187 232.399231,127.527702 
	C247.795914,134.983749 263.157166,142.523911 278.714325,149.632736 
	C285.885132,152.909439 292.120300,156.609558 295.027710,164.513016 
	C296.168304,167.613617 298.365173,170.325653 300.081024,173.214645 
	C300.541229,173.103271 301.001465,172.991882 301.461700,172.880493 
	C301.647125,171.527679 301.969513,170.177155 301.992401,168.821609 
	C302.062653,164.658905 301.739227,160.469757 302.102386,156.337799 
	C302.419189,152.733566 300.881500,151.092026 297.834503,149.581131 
	C272.072601,136.806839 246.389771,123.873032 220.677612,110.998276 
	C219.225006,110.270905 217.723343,109.641502 215.779785,108.754395 
	C214.434586,111.500000 213.211807,113.995735 212.045563,117.244835 
M201.885391,213.433563 
	C199.267654,215.255295 194.697525,216.800232 194.392761,218.949860 
	C193.420288,225.809082 194.032166,232.892929 194.032166,239.890015 
	C198.073578,234.383286 201.037155,228.651596 204.343933,223.125275 
	C205.650818,220.941208 207.350922,218.471695 209.503494,217.396973 
	C226.303207,209.009277 243.265564,200.947830 260.158936,192.746918 
	C268.183228,188.851501 276.166534,184.871536 284.411896,180.809937 
	C282.892273,177.873459 281.693481,175.556915 280.219238,172.708145 
	C254.072662,186.267151 228.284119,199.640488 201.885391,213.433563 
M418.350342,178.863159 
	C421.025116,177.524338 423.786377,176.327850 426.334137,174.779999 
	C427.426819,174.116196 428.698273,172.782684 428.809052,171.648041 
	C429.136719,168.292343 428.926239,164.884079 428.926239,160.724915 
	C406.685303,171.765976 385.364716,182.350159 363.188934,193.358887 
	C366.266052,194.862152 368.540802,195.590714 370.357574,196.937271 
	C374.719025,200.169861 378.585999,199.383865 383.109985,196.926788 
	C394.488892,190.746735 406.129913,185.049423 418.350342,178.863159 
z"/>
<path fill="#777777" opacity="1.000000" stroke="none" 
	d="
M619.971436,151.010437 
	C618.196777,151.010422 616.892151,151.010422 615.258545,151.010422 
	C615.258545,138.986710 615.258545,127.293716 615.258545,115.124985 
	C618.612000,115.990555 622.883606,112.431374 624.503418,118.175415 
	C633.550476,112.731606 637.956299,112.877632 644.824158,119.032303 
	C648.987732,115.613678 653.528320,113.126266 659.299072,114.786461 
	C663.783325,116.076538 666.790405,118.884727 666.946594,123.513412 
	C667.248413,132.459564 667.034668,141.423126 667.034668,150.695023 
	C663.992004,150.695023 660.936279,150.695023 657.237610,150.695023 
	C657.237610,143.496201 657.264099,136.389832 657.225159,129.283844 
	C657.208435,126.231834 657.200562,122.737823 653.221619,122.364441 
	C649.238708,121.990692 646.915527,124.721916 646.769775,128.455322 
	C646.485840,135.728760 646.686646,143.021118 646.686646,150.656418 
	C642.759094,150.656418 639.716064,150.656418 636.072144,150.656418 
	C636.072144,143.465149 636.035767,136.361649 636.087830,129.258789 
	C636.112976,125.829353 635.585632,122.482376 631.460815,122.326889 
	C627.477112,122.176720 625.374573,125.197975 625.220642,128.804626 
	C624.916687,135.928543 625.130981,143.074570 625.130981,150.643402 
	C623.277832,150.788437 621.859619,150.899445 619.971436,151.010437 
z"/>
<path fill="#777777" opacity="1.000000" stroke="none" 
	d="
M667.422729,220.999756 
	C667.422363,225.133713 667.422363,228.777145 667.422363,232.713257 
	C663.965637,232.713257 660.905762,232.713257 657.249695,232.713257 
	C657.249695,225.600723 657.292480,218.645813 657.230469,211.691818 
	C657.202209,208.526291 657.438660,204.710159 653.116089,204.363419 
	C648.802124,204.017365 646.770081,207.240067 646.616638,211.059540 
	C646.330872,218.170837 646.534607,225.301788 646.534607,232.712860 
	C642.762634,232.712860 639.829102,232.712860 636.095764,232.712860 
	C636.095764,226.888321 636.099915,220.968018 636.093079,215.047714 
	C636.091125,213.381485 636.561157,211.480804 635.920654,210.103302 
	C634.928589,207.969299 633.237000,204.707321 631.717102,204.637360 
	C629.790649,204.548691 626.990479,206.776932 625.942383,208.740234 
	C624.787109,210.904236 625.015015,213.896515 624.952820,216.535324 
	C624.828064,221.829742 624.915771,227.129196 624.915771,232.713150 
	C621.555786,232.713150 618.625732,232.713150 615.309631,232.713150 
	C615.309631,221.080826 615.309631,209.373154 615.309631,197.224792 
	C618.592957,197.861084 622.732300,194.637390 624.547485,200.107941 
	C633.809082,194.731049 637.955078,194.865082 643.279053,199.650452 
	C649.168762,198.530777 654.004456,196.803406 658.794006,196.923050 
	C663.813782,197.048462 666.707397,200.910080 667.033386,206.026855 
	C667.340271,210.843048 667.306824,215.680908 667.422729,220.999756 
z"/>
<path fill="#777777" opacity="1.000000" stroke="none" 
	d="
M692.824890,204.279358 
	C687.361938,204.881561 686.089600,208.491928 686.021423,212.819138 
	C685.919495,219.291504 685.994934,225.766647 685.994934,232.624207 
	C682.605164,232.624207 679.567139,232.624207 676.221313,232.624207 
	C676.221313,221.027817 676.221313,209.448044 676.221313,197.364471 
	C679.535034,197.884308 683.737427,194.340225 685.637451,200.179230 
	C694.223206,194.757126 698.742920,194.903397 705.990784,201.027924 
	C710.068970,197.348846 714.709229,195.166199 720.449402,196.828491 
	C724.724487,198.066528 727.732544,200.790680 727.897949,205.180222 
	C728.241211,214.288452 728.001587,223.418671 728.001587,232.774872 
	C725.016785,232.774872 722.071899,232.774872 718.271362,232.774872 
	C718.271362,227.385681 718.279724,221.982544 718.267273,216.579453 
	C718.262268,214.415894 718.199890,212.252518 718.184082,210.088913 
	C718.162659,207.164215 717.247925,204.059036 714.065430,204.498672 
	C711.854065,204.804184 708.943787,207.170120 708.190918,209.275391 
	C707.005188,212.590714 707.244019,216.456635 707.114624,220.097809 
	C706.968140,224.217422 707.080811,228.346283 707.080811,232.734863 
	C703.716431,232.734863 700.782715,232.734863 697.067139,232.734863 
	C697.067139,225.528915 697.044556,218.273941 697.078064,211.019226 
	C697.091919,208.005249 696.665466,205.316162 692.824890,204.279358 
z"/>
<path fill="#BF9789" opacity="1.000000" stroke="none" 
	d="
M563.998413,304.001617 
	C565.425049,307.727570 566.721863,311.091278 568.231934,315.008057 
	C566.064087,315.008057 564.557312,314.819885 563.114014,315.042694 
	C558.429260,315.765808 555.501892,314.162842 554.616272,309.276489 
	C553.838440,304.985382 551.303284,303.116394 546.876831,303.961121 
	C545.752441,304.175690 544.524963,304.156769 543.391663,303.966370 
	C536.576782,302.821442 531.883301,304.609589 530.615601,312.251831 
	C530.433044,313.352509 528.198669,314.621674 526.744629,314.887482 
	C524.351379,315.325012 521.819885,315.006165 518.523193,315.006165 
	C520.357178,310.226624 521.933411,306.085999 523.533752,301.954681 
	C527.675903,291.261566 531.944214,280.615082 535.901733,269.854187 
	C536.992126,266.889252 538.389343,265.473511 541.626770,265.824371 
	C545.032715,266.193481 548.636047,264.727814 550.461182,269.807495 
	C554.560852,281.217529 559.356384,292.377563 563.998413,304.001617 
M546.227722,287.230469 
	C545.330994,284.862000 544.434204,282.493561 543.537476,280.125092 
	C543.156311,280.146790 542.775208,280.168488 542.394043,280.190186 
	C540.682861,284.973206 538.971619,289.756226 537.175781,294.775848 
	C541.434265,294.775848 544.987122,294.775848 549.066528,294.775848 
	C548.120300,292.211182 547.331177,290.072479 546.227722,287.230469 
z"/>
<path fill="#BF9789" opacity="1.000000" stroke="none" 
	d="
M542.304810,183.031952 
	C555.358887,182.842239 560.862549,186.366150 564.755310,197.570923 
	C561.481140,198.442566 558.244568,199.304184 555.390686,200.063934 
	C553.358765,197.653412 551.988708,195.219162 549.930847,193.745178 
	C544.689270,189.990707 537.073975,192.399445 534.540283,198.612778 
	C531.926636,205.022308 532.058044,211.669205 534.507263,218.114731 
	C535.978516,221.986710 539.111328,224.287766 543.258911,224.611496 
	C547.188477,224.918198 551.193787,223.490005 552.361145,219.812820 
	C554.423889,213.315079 558.143372,214.997223 562.296875,216.676620 
	C563.051880,216.981903 563.827637,217.235794 564.557983,217.500412 
	C563.256165,226.154648 557.687317,231.876053 549.049316,233.599182 
	C539.681091,235.467972 529.669006,231.509125 525.430786,223.382263 
	C520.162537,213.280197 520.353271,202.826660 525.896484,192.816071 
	C529.281677,186.702759 535.005371,183.803421 542.304810,183.031952 
z"/>
<path fill="#BF9789" opacity="1.000000" stroke="none" 
	d="
M554.526123,149.789001 
	C536.874817,156.334579 522.135620,146.337997 522.055237,128.020523 
	C522.038635,124.237839 522.314270,120.338966 523.232971,116.689430 
	C525.635986,107.143097 533.664978,101.221123 543.807678,100.981659 
	C555.065979,100.715858 561.002319,104.723724 564.750854,115.578003 
	C561.479309,116.445511 558.244629,117.303223 555.161804,118.120667 
	C553.541260,115.936607 552.447327,113.787445 550.761597,112.316498 
	C545.656494,107.861916 537.283691,110.009430 534.562012,116.569054 
	C531.911682,122.956696 532.069824,129.600845 534.471313,136.041016 
	C535.993958,140.124283 539.335327,142.499344 543.648315,142.653076 
	C547.963379,142.806900 551.267639,140.648224 553.192749,136.658005 
	C553.760193,135.482010 554.266479,134.276535 555.042603,132.545197 
	C558.266479,133.489044 561.380127,134.400635 564.917419,135.436249 
	C563.555054,141.849136 560.433105,146.566483 554.526123,149.789001 
z"/>
<path fill="#797979" opacity="1.000000" stroke="none" 
	d="
M711.251343,133.823471 
	C711.142578,140.369370 709.382874,145.818237 704.091064,149.398956 
	C698.256714,153.346786 692.467896,152.453247 686.307617,147.781448 
	C686.307617,153.643372 686.307617,158.818298 686.307617,164.250427 
	C682.752258,164.250427 679.824219,164.250427 676.534790,164.250427 
	C676.534790,147.927536 676.534790,131.745972 676.534790,114.588623 
	C680.249084,115.245720 683.513672,115.823250 686.778198,116.400780 
	C700.508423,109.943428 710.309692,116.142197 711.251343,133.823471 
M689.104797,124.426041 
	C685.588806,128.547058 685.268555,133.455383 687.319824,137.946243 
	C688.419006,140.352600 691.500122,142.899612 694.045776,143.348846 
	C697.670166,143.988388 700.095947,140.863403 700.672668,137.297699 
	C701.114258,134.567215 701.177917,131.613632 700.628479,128.918533 
	C699.481995,123.294640 695.439880,121.605225 689.104797,124.426041 
z"/>
<path fill="#777777" opacity="1.000000" stroke="none" 
	d="
M919.126465,315.115356 
	C916.984619,314.093109 915.226868,313.179504 913.469055,312.265900 
	C913.552551,312.712921 913.636047,313.159943 913.719543,313.606964 
	C910.440918,314.228821 907.162292,314.850677 903.399963,315.564270 
	C903.399963,298.584534 903.399963,282.527191 903.399963,266.141602 
	C906.508484,266.141602 909.428223,266.141602 912.857178,266.141602 
	C912.857178,271.158020 912.857178,276.223267 912.857178,281.983643 
	C914.348999,281.171112 915.163452,280.722870 915.982056,280.282318 
	C924.508179,275.693604 934.491516,279.145233 936.787537,288.492920 
	C938.115112,293.897736 937.921753,300.147400 936.651550,305.607056 
	C934.809814,313.522644 927.734863,316.884216 919.126465,315.115356 
M914.992493,304.290131 
	C917.379150,305.339447 920.199951,307.708954 922.042297,307.103088 
	C924.332703,306.349945 926.802063,303.378571 927.399353,300.927795 
	C928.171692,297.758820 927.913208,293.851776 926.676636,290.847900 
	C925.825378,288.779968 922.609985,286.619293 920.358337,286.515564 
	C918.394043,286.425018 914.887085,288.887604 914.547852,290.690002 
	C913.765747,294.846283 914.493835,299.286713 914.992493,304.290131 
z"/>
<path fill="#787878" opacity="1.000000" stroke="none" 
	d="
M684.023926,327.363708 
	C679.393433,328.256256 675.081909,328.922241 670.453857,329.637146 
	C670.019958,326.229797 669.733215,323.977936 669.395142,321.322876 
	C670.934265,321.222412 672.192749,321.143250 673.450806,321.057678 
	C678.622742,320.705963 681.132019,317.019928 679.321167,312.089233 
	C675.999023,303.043701 672.514221,294.058014 669.119080,285.039124 
	C668.484009,283.351959 667.950806,281.626343 667.082336,279.070007 
	C670.295471,279.070007 673.078796,278.749390 675.723206,279.216034 
	C676.904724,279.424500 678.287842,281.038391 678.755249,282.316010 
	C681.091980,288.703033 683.155273,295.190063 685.774048,303.014221 
	C687.813538,296.867401 689.473877,291.914886 691.099976,286.951111 
	C694.010803,278.065613 694.002197,278.062805 704.222839,279.627136 
	C698.756409,294.161346 693.386353,308.606171 687.829590,322.978790 
	C687.212219,324.575592 685.530823,325.761017 684.023926,327.363708 
z"/>
<path fill="#787878" opacity="1.000000" stroke="none" 
	d="
M629.820190,315.086090 
	C623.853577,316.600861 618.694458,316.005554 615.061401,311.119385 
	C610.804260,305.393829 613.271301,297.619537 620.144165,295.272919 
	C624.826782,293.674072 629.746643,292.770172 635.609619,291.290771 
	C634.357849,289.467041 633.651550,287.284241 632.524170,287.039246 
	C630.276367,286.550812 626.577515,286.192596 625.630859,287.428986 
	C622.069824,292.079742 618.346069,289.610657 614.163086,288.830719 
	C615.658997,283.169922 618.704834,279.509277 624.533203,278.827576 
	C627.321960,278.501434 630.184326,278.222931 632.961060,278.482513 
	C642.042725,279.331451 644.797119,282.476471 644.888672,291.661224 
	C644.926819,295.491394 644.696106,299.331940 644.904480,303.150482 
	C645.110596,306.925262 645.716431,310.678192 646.250000,315.341736 
	C642.682922,314.851410 639.015747,314.347321 635.348572,313.843262 
	C635.414978,313.352692 635.481384,312.862122 635.547729,312.371552 
	C633.768433,313.246094 631.989136,314.120636 629.820190,315.086090 
M634.990234,301.248810 
	C632.485901,295.785828 629.093506,300.624664 626.260010,300.835541 
	C625.307556,300.906403 624.297302,304.146912 623.969055,306.051697 
	C623.880310,306.566742 626.144836,308.032715 627.404663,308.135254 
	C631.635437,308.479523 634.303833,306.439911 634.990234,301.248810 
z"/>
<path fill="#787878" opacity="1.000000" stroke="none" 
	d="
M881.985352,314.248718 
	C874.335083,316.810303 868.400391,315.731964 865.216675,311.439819 
	C860.840515,305.539948 863.168396,297.624054 870.289917,295.223053 
	C874.972229,293.644501 879.878662,292.730743 884.638367,291.530945 
	C884.002686,286.573792 878.845764,283.879517 875.891541,287.249359 
	C871.972351,291.720001 868.393433,289.735962 864.185730,288.802551 
	C865.706848,282.797363 869.164917,279.232452 875.186523,278.702515 
	C878.307800,278.427826 881.518127,278.317657 884.610046,278.725525 
	C892.043884,279.706207 894.632690,282.772308 894.868652,290.337189 
	C895.120728,298.416504 895.293884,306.498260 895.519714,315.287933 
	C892.606079,314.882812 888.889587,314.366058 885.173035,313.849335 
	C885.226624,313.347198 885.280212,312.845062 885.333801,312.342926 
	C884.330627,312.919373 883.327393,313.495819 881.985352,314.248718 
M876.055908,308.003113 
	C883.008118,308.382874 885.386169,305.881012 884.466797,298.624420 
	C881.911133,299.181458 879.314514,299.506409 876.887390,300.330597 
	C872.831116,301.707977 872.421692,304.017975 876.055908,308.003113 
z"/>
<path fill="#787878" opacity="1.000000" stroke="none" 
	d="
M885.118408,207.961411 
	C882.048523,207.838821 879.279785,207.516098 876.093872,207.144730 
	C877.649658,201.189011 880.671997,197.522659 886.500183,196.834595 
	C889.289917,196.505234 892.153503,196.222672 894.931702,196.480011 
	C904.040710,197.323822 906.740601,200.458038 906.908203,209.641586 
	C907.046814,217.233643 907.283691,224.823914 907.497864,233.235138 
	C904.682556,232.849274 901.015076,232.346634 896.395996,231.713547 
	C893.252686,232.180237 888.748413,233.599945 884.354614,233.315292 
	C878.589355,232.941772 875.379150,228.796799 875.090027,223.340408 
	C874.832764,218.483643 877.513367,214.662155 882.821777,213.039093 
	C887.388611,211.642761 892.084351,210.668060 898.351013,209.099411 
	C896.106201,206.972061 894.970154,205.131088 893.371704,204.539597 
	C890.031372,203.303482 887.168091,204.453064 885.118408,207.961411 
M886.708679,225.174881 
	C889.446655,224.935104 892.759155,225.543137 894.746826,224.196182 
	C896.436829,223.050964 896.599731,219.652100 897.812073,216.179810 
	C893.612000,217.198502 890.961914,217.567780 888.529724,218.503448 
	C885.763977,219.567444 884.000610,221.444809 886.708679,225.174881 
z"/>
<path fill="#787878" opacity="1.000000" stroke="none" 
	d="
M781.790405,122.737106 
	C786.368896,113.876907 802.037537,110.821480 808.653870,117.701317 
	C810.758789,119.890015 811.341980,123.935875 811.769470,127.242073 
	C812.277710,131.173538 811.694031,135.232941 811.905884,139.219757 
	C812.106567,142.995804 812.724304,146.749664 813.257446,151.369354 
	C809.657776,150.869980 805.963501,150.357468 801.789551,149.778412 
	C798.004211,150.242172 793.332947,151.544403 788.794556,151.182220 
	C783.355408,150.748138 780.331909,146.558792 780.089661,141.263931 
	C779.875122,136.571899 782.435303,132.734390 787.417664,131.169128 
	C792.121460,129.691330 796.973877,128.686386 803.405884,127.056633 
	C801.084106,124.920670 799.754211,122.679146 798.337036,122.622559 
	C795.976074,122.528282 793.160645,123.287201 791.256775,124.674927 
	C788.214905,126.892281 782.928528,126.379074 781.790405,122.737106 
M801.865540,135.566269 
	C798.785339,136.003860 795.610352,136.133911 792.674011,137.038513 
	C791.581604,137.375046 790.158997,139.811310 790.471252,140.778625 
	C790.919495,142.167175 792.661621,143.729538 794.127075,144.086807 
	C798.448730,145.140366 801.455688,142.000427 801.865540,135.566269 
z"/>
<path fill="#787878" opacity="1.000000" stroke="none" 
	d="
M944.559937,124.721893 
	C947.843872,114.363846 963.750610,110.048492 971.495972,117.565620 
	C973.651794,119.657951 974.311279,123.737717 974.760193,127.028107 
	C975.295654,130.952408 974.696594,135.017166 974.904236,139.004684 
	C975.100769,142.779877 975.705017,146.533813 976.180603,150.745041 
	C972.747803,150.478058 968.589233,152.948364 966.379517,149.661209 
	C961.039001,150.251694 956.211670,151.495117 951.516113,151.114288 
	C946.339905,150.694473 943.438538,146.587585 943.101257,141.476059 
	C942.791138,136.776321 945.306152,132.805389 950.217285,131.237885 
	C954.937500,129.731293 959.823059,128.742523 964.588928,127.538109 
	C964.085022,122.632919 958.994812,119.893913 955.942322,123.215599 
	C952.241943,127.242233 948.788818,126.062279 944.559937,124.721893 
M961.529968,143.379059 
	C964.931641,141.393845 965.449097,138.425949 964.503296,134.426651 
	C961.463623,135.251724 958.502686,135.736771 955.852600,136.918777 
	C954.655334,137.452774 953.169312,139.616760 953.434753,140.606842 
	C953.811462,142.012207 955.515991,143.361206 956.975647,144.073013 
	C957.975708,144.560730 959.524597,143.923187 961.529968,143.379059 
z"/>
<path fill="#777777" opacity="1.000000" stroke="none" 
	d="
M893.233032,144.071396 
	C886.492554,151.817108 878.493774,153.795898 869.761414,150.121506 
	C862.663391,147.134827 858.601562,139.867920 859.482971,131.406509 
	C860.240479,124.133911 863.298889,118.328217 870.619568,115.737335 
	C878.058838,113.104439 885.121399,113.689873 890.996033,119.398239 
	C896.878418,125.114212 897.409302,132.216553 895.323975,139.718658 
	C894.930420,141.134338 894.087769,142.425186 893.233032,144.071396 
M882.155579,141.977280 
	C886.528076,137.362320 887.384583,131.373062 884.360168,126.561508 
	C881.994202,122.797516 877.622253,121.686859 873.999451,123.929512 
	C870.134460,126.322083 868.510742,132.846283 870.522827,137.898865 
	C872.379578,142.561234 875.682251,143.927063 882.155579,141.977280 
z"/>
<path fill="#777777" opacity="1.000000" stroke="none" 
	d="
M955.762207,211.745285 
	C957.963196,201.513199 964.682495,196.073517 974.480225,196.243973 
	C983.129211,196.394409 990.497681,202.382462 991.986084,210.470123 
	C993.800293,220.328506 989.643372,229.015625 981.481689,232.422134 
	C973.459167,235.770538 962.664368,233.391281 958.881653,226.307938 
	C956.684570,222.193909 956.684265,216.906693 955.762207,211.745285 
M977.443298,205.694031 
	C971.809875,204.174194 968.309387,205.631592 966.500916,210.249741 
	C964.443909,215.502823 966.342102,222.434998 970.413452,224.537872 
	C973.857727,226.316864 978.228821,224.993668 980.377563,221.521637 
	C983.393188,216.648849 982.519836,210.690247 977.443298,205.694031 
z"/>
<path fill="#BF9789" opacity="1.000000" stroke="none" 
	d="
M607.033264,140.741302 
	C603.075439,148.796646 596.812683,152.529800 588.308228,151.750336 
	C580.859375,151.067657 574.995972,147.748016 572.549622,140.055359 
	C569.247070,129.670410 573.478394,119.146965 582.322937,115.811165 
	C592.461182,111.987442 603.408875,115.557198 606.591064,124.880951 
	C608.190552,129.567337 607.062561,135.184570 607.033264,140.741302 
M591.970093,142.987976 
	C598.261108,139.626526 600.139526,131.155609 595.814026,125.653114 
	C593.284851,122.435722 588.381897,121.930717 585.119080,124.551521 
	C582.098694,126.977631 580.714050,132.989380 582.367004,137.486389 
	C583.841309,141.497498 586.633118,143.742142 591.970093,142.987976 
z"/>
<path fill="#BF9789" opacity="1.000000" stroke="none" 
	d="
M605.665710,225.454773 
	C598.580200,235.783035 586.781677,235.247391 579.770020,231.140472 
	C572.232727,226.725708 569.284180,216.341553 572.872986,207.397430 
	C576.232300,199.025452 585.003174,194.602875 594.083435,196.702484 
	C603.464050,198.871536 609.183044,206.468597 608.262756,216.092957 
	C607.969727,219.157257 606.692810,222.127487 605.665710,225.454773 
M598.028992,215.408295 
	C597.656738,213.478104 597.617371,211.402130 596.848145,209.645798 
	C594.752747,204.861191 589.854248,203.415787 585.744812,206.113083 
	C582.139954,208.479172 580.530029,214.760056 582.447571,219.695389 
	C583.823975,223.237869 586.275391,225.542252 590.395081,225.161682 
	C595.785583,224.663712 597.407227,220.873184 598.028992,215.408295 
z"/>
<path fill="#797979" opacity="1.000000" stroke="none" 
	d="
M764.914795,292.086304 
	C764.307739,284.286255 767.123535,279.878876 774.262695,279.035919 
	C779.063232,278.469086 784.264282,278.743958 788.875244,280.070435 
	C791.674255,280.875610 793.690552,284.401520 797.013977,287.634827 
	C791.378662,288.831390 787.970154,291.493195 783.846802,287.118744 
	C781.335632,284.454620 777.200439,285.303131 773.006409,288.397400 
	C775.569824,289.558685 777.192566,290.484344 778.933167,291.043243 
	C782.718933,292.258820 786.699707,292.959167 790.357239,294.462555 
	C797.378540,297.348602 799.140686,305.126221 794.053406,310.797913 
	C788.869141,316.577972 782.066956,316.429688 775.126526,315.174896 
	C769.243347,314.111237 765.183105,310.993744 763.404602,304.638275 
	C767.972229,303.754883 772.115417,301.056122 775.992371,306.644470 
	C777.047058,308.164673 781.454834,307.533447 784.318848,307.498260 
	C785.017029,307.489685 786.227783,305.936584 786.229675,305.091461 
	C786.231445,304.299561 785.084167,303.075378 784.199463,302.787018 
	C780.734558,301.657654 777.141296,300.927643 773.656738,299.851532 
	C769.747070,298.644165 766.199524,296.876862 764.914795,292.086304 
z"/>
<path fill="#797979" opacity="1.000000" stroke="none" 
	d="
M716.696289,304.009644 
	C719.016968,308.839020 722.889771,308.596649 726.750000,307.743805 
	C727.768921,307.518677 729.133301,306.111115 729.201050,305.165039 
	C729.258789,304.357635 727.833374,302.985443 726.803955,302.641571 
	C723.183228,301.432007 719.390625,300.735229 715.773682,299.516296 
	C709.934265,297.548370 707.312927,294.015472 707.574158,289.015228 
	C707.848083,283.770081 711.479065,280.044464 717.504150,278.826385 
	C727.636658,276.777832 734.784058,279.277679 737.869263,285.970856 
	C738.073425,286.413696 738.106812,286.935211 738.399109,288.192078 
	C734.473938,288.380737 731.153809,291.734344 726.966858,287.198853 
	C724.511658,284.539276 720.300049,285.159790 716.243774,288.405762 
	C718.526062,289.491241 720.109619,290.462677 721.827698,291.016968 
	C725.620544,292.240601 729.612183,292.931458 733.285828,294.423065 
	C740.178040,297.221436 742.097168,304.693390 737.393738,310.386383 
	C732.398926,316.432007 725.615784,316.404877 718.608398,315.261383 
	C712.485718,314.262299 708.254089,311.176117 706.128845,303.660187 
	C709.922546,303.660187 713.209778,303.660187 716.696289,304.009644 
z"/>
<path fill="#777777" opacity="1.000000" stroke="none" 
	d="
M606.161621,293.122040 
	C606.163574,300.551086 606.163574,307.497742 606.163574,314.723755 
	C602.792419,314.723755 599.863403,314.723755 596.174072,314.723755 
	C596.174072,308.335449 596.205200,301.912720 596.162659,295.490448 
	C596.136047,291.465668 596.424438,287.015198 590.965271,286.237885 
	C586.808777,285.645996 583.880371,289.458984 583.706055,295.606171 
	C583.527832,301.889465 583.666565,308.181763 583.666565,314.735779 
	C580.022400,314.735779 576.965576,314.735779 573.667358,314.735779 
	C573.667358,302.933136 573.667358,291.365295 573.667358,279.243530 
	C577.242371,280.051910 581.643311,276.187042 583.205872,281.801880 
	C586.569702,280.630341 589.870728,278.807556 593.336121,278.407288 
	C601.782166,277.431671 605.905029,282.274658 606.161621,293.122040 
z"/>
<path fill="#777777" opacity="1.000000" stroke="none" 
	d="
M932.927979,151.006363 
	C930.636292,151.008194 928.815613,151.008194 926.174744,151.008194 
	C926.174744,144.373459 926.216736,137.964447 926.162964,131.556229 
	C926.108521,125.074905 924.261841,122.064873 920.539978,122.159157 
	C916.480591,122.261993 913.875610,125.619057 913.709961,131.544220 
	C913.534241,137.831146 913.670532,144.126785 913.670532,150.710358 
	C910.055908,150.710358 906.998596,150.710358 903.661743,150.710358 
	C903.661743,138.981552 903.661743,127.412613 903.661743,115.354668 
	C907.252502,115.902634 911.526550,112.406013 913.479675,118.483543 
	C917.650879,115.310280 922.212280,113.303276 927.713684,114.773903 
	C932.946228,116.172676 935.797546,119.132149 935.985046,124.604660 
	C936.252625,132.414078 936.221619,140.239487 936.038757,148.051498 
	C936.015259,149.055878 934.319885,150.021133 932.927979,151.006363 
z"/>
<path fill="#777777" opacity="1.000000" stroke="none" 
	d="
M781.242065,233.005066 
	C779.995850,232.219025 778.517334,231.445374 778.506287,230.651276 
	C778.353882,219.705276 778.403381,208.756470 778.403381,197.184464 
	C782.229248,198.065857 786.619934,194.202698 788.418823,200.552887 
	C792.823242,197.098114 797.579895,195.299759 803.243896,196.878311 
	C807.820374,198.153763 810.668274,201.175095 810.860352,205.654907 
	C811.242920,214.578537 810.973694,223.530106 810.973694,232.736755 
	C807.763367,232.736755 804.834473,232.736755 801.173645,232.736755 
	C801.173645,226.299408 801.204102,219.870773 801.162537,213.442627 
	C801.136475,209.408661 801.393799,204.962173 795.913757,204.237015 
	C791.748962,203.685913 788.874695,207.483276 788.701782,213.662933 
	C788.525940,219.946152 788.662964,226.238113 788.662964,233.007965 
	C785.931763,233.007965 783.811890,233.007965 781.242065,233.005066 
z"/>
<path fill="#777777" opacity="1.000000" stroke="none" 
	d="
M1021.633179,232.370316 
	C1021.282776,225.358688 1021.202576,218.707489 1021.152344,212.056091 
	C1021.124146,208.323563 1020.514648,204.849075 1016.026855,204.223969 
	C1012.259399,203.699158 1009.006836,207.126312 1008.835083,212.058243 
	C1008.598816,218.840332 1008.775940,225.636795 1008.775940,232.714294 
	C1005.051392,232.714294 1001.994751,232.714294 998.658936,232.714294 
	C998.658936,220.971161 998.658936,209.400818 998.658936,197.297699 
	C1002.264099,197.893936 1006.534607,194.441986 1008.511963,200.464355 
	C1012.809204,197.127441 1017.558044,195.301437 1023.223572,196.872742 
	C1027.801514,198.142410 1030.662964,201.155457 1030.857178,205.633133 
	C1031.244385,214.557861 1030.971802,223.511215 1030.971802,232.730667 
	C1027.780640,232.730667 1024.848267,232.730667 1021.633179,232.370316 
z"/>
<path fill="#777777" opacity="1.000000" stroke="none" 
	d="
M759.634399,197.661301 
	C762.750183,197.335037 765.546692,197.335037 768.690918,197.335037 
	C768.690918,209.089020 768.690918,220.795212 768.690918,232.946320 
	C765.422302,232.181808 761.241516,235.313492 759.264099,229.684433 
	C758.102722,230.402374 756.779724,231.336014 755.357727,232.080444 
	C746.267700,236.839279 737.243896,232.338104 736.544128,222.221237 
	C735.984741,214.133362 736.431213,205.975906 736.431213,197.457947 
	C739.732727,197.457947 742.774719,197.457947 746.480103,197.457947 
	C746.480103,204.293716 746.391357,211.093521 746.515564,217.889435 
	C746.583069,221.579453 746.602600,225.622086 751.809143,225.930634 
	C755.894958,226.172791 758.770569,222.769913 758.951660,217.441833 
	C759.171997,210.960449 759.202576,204.472610 759.634399,197.661301 
z"/>
<path fill="#777777" opacity="1.000000" stroke="none" 
	d="
M740.053528,119.241913 
	C739.699402,115.996536 740.817993,114.761497 743.696838,115.030212 
	C745.508606,115.199326 747.348938,115.061729 749.607788,115.061729 
	C749.607788,126.925728 749.607788,138.626846 749.607788,150.821152 
	C746.479797,149.962006 742.055481,153.925476 740.312866,147.552216 
	C735.687073,150.948257 730.793274,153.076370 724.986023,151.101944 
	C721.214966,149.819824 718.219727,147.411102 718.071350,143.416565 
	C717.727905,134.173660 717.962158,124.909317 717.962158,115.356567 
	C720.779053,115.356567 723.705444,115.356567 727.401611,115.356567 
	C727.401611,121.123924 727.391052,126.885109 727.408875,132.646210 
	C727.413452,134.143494 727.497314,135.640930 727.561462,137.137573 
	C727.706482,140.522049 728.407166,143.561172 732.558899,143.945084 
	C736.139648,144.276215 739.517761,141.392105 739.784363,137.183655 
	C740.152283,131.377518 739.988831,125.537712 740.053528,119.241913 
z"/>
<path fill="#787878" opacity="1.000000" stroke="none" 
	d="
M846.975708,232.298447 
	C838.170288,226.923309 835.059326,216.824310 838.819763,206.774582 
	C841.902588,198.535690 849.466248,194.983597 859.719116,196.913315 
	C865.778198,198.053711 869.152527,201.847214 870.854980,208.050339 
	C867.753418,208.700806 864.875122,209.304459 861.742371,209.961472 
	C861.031982,208.835693 860.576599,207.428329 859.609619,206.744568 
	C858.208252,205.753677 856.449707,204.736008 854.821167,204.698395 
	C849.974548,204.586472 847.762329,208.175323 847.891357,215.282455 
	C848.009644,221.795654 850.612488,225.781540 855.134399,225.059570 
	C857.720703,224.646637 859.977661,222.171448 862.382935,220.624756 
	C862.164185,220.080154 861.945435,219.535568 861.726746,218.990967 
	C863.316711,219.186081 864.914490,219.333496 866.494446,219.590302 
	C867.946899,219.826385 869.380310,220.180206 870.800659,220.477676 
	C869.596375,231.593063 860.318665,236.251923 846.975708,232.298447 
z"/>
<path fill="#767676" opacity="1.000000" stroke="none" 
	d="
M851.887573,306.102234 
	C854.330444,306.102264 856.289917,306.102264 858.563721,306.102264 
	C858.563721,309.127350 858.563721,311.701141 858.563721,314.646942 
	C847.218079,314.646942 835.857910,314.646942 824.221802,314.646942 
	C824.221802,298.665680 824.221802,282.769073 824.221802,266.462280 
	C827.295593,266.462280 830.346252,266.462280 834.039795,266.462280 
	C834.039795,279.360443 834.039795,292.383728 834.039795,306.102203 
	C840.234741,306.102203 845.819397,306.102203 851.887573,306.102234 
z"/>
<path fill="#767676" opacity="1.000000" stroke="none" 
	d="
M776.981812,148.679108 
	C773.659973,153.202942 769.378113,152.046875 765.267944,151.056244 
	C761.379150,150.118927 760.201233,146.914841 760.117065,143.404160 
	C759.961670,136.921616 760.072693,130.432693 760.072693,123.730896 
	C758.656006,123.336548 757.452209,123.001450 756.393921,122.706856 
	C754.420044,119.955490 756.288147,115.543419 760.049316,114.242996 
	C758.019409,106.522972 764.647400,105.784981 769.839355,102.518456 
	C769.839355,107.020920 769.839355,110.847740 769.839355,114.818909 
	C772.129944,114.985268 773.750366,115.102951 775.802002,115.251961 
	C775.802002,117.687126 775.802002,120.061134 775.802002,122.764885 
	C774.140686,122.957809 772.388489,123.161293 770.036194,123.434464 
	C770.036194,129.048721 769.708435,134.684158 770.264465,140.231018 
	C770.405029,141.633682 773.365723,142.753677 775.030457,144.003571 
	C775.442200,143.684540 775.853882,143.365509 776.265625,143.046478 
	C776.503540,144.782547 776.741455,146.518600 776.981812,148.679108 
z"/>
<path fill="#767676" opacity="1.000000" stroke="none" 
	d="
M926.003235,216.898514 
	C926.014099,225.026398 926.014099,225.026398 932.199829,225.189621 
	C932.044128,228.112793 935.737122,231.846054 929.849060,233.344879 
	C922.899414,235.113937 917.033813,232.706863 916.409363,227.133163 
	C915.764465,221.377213 916.300415,215.497192 915.880798,209.703247 
	C915.735352,207.694687 914.275330,205.781311 912.707947,204.035751 
	C912.545105,201.452682 909.398682,196.968109 915.543518,196.767639 
	C916.534424,188.994766 917.004456,188.453156 925.833008,185.125839 
	C925.833008,188.988571 925.833008,192.700470 925.833008,196.728775 
	C928.020813,196.950943 929.768860,197.128448 931.868530,197.341675 
	C931.868530,199.808853 931.868530,202.182922 931.868530,204.868729 
	C930.009705,205.019196 928.258484,205.160950 926.003113,205.343521 
	C926.003113,209.183029 926.003113,212.800629 926.003235,216.898514 
z"/>
<path fill="#767676" opacity="1.000000" stroke="none" 
	d="
M835.010193,123.082108 
	C832.195740,122.836052 830.789490,123.401970 830.954407,126.267113 
	C831.164612,129.916946 831.158752,133.596283 830.964233,137.247894 
	C830.741150,141.435059 831.274536,144.575409 837.093384,142.565460 
	C837.158386,145.840530 840.335510,149.033554 835.899658,150.997391 
	C830.215149,153.514038 823.026978,151.352448 821.889160,146.648773 
	C821.007202,143.002319 821.151062,139.086868 821.022949,135.284805 
	C820.894592,131.477341 820.994690,127.662170 820.994690,123.850388 
	C820.574219,124.014572 820.153809,124.178757 819.733337,124.342941 
	C818.764343,122.743713 816.983032,121.118835 817.032471,119.551765 
	C817.094055,117.602440 818.667847,115.700874 820.279480,114.117393 
	C819.011536,106.337105 825.775879,105.792992 830.768677,102.604317 
	C830.768677,106.944473 830.768677,110.645004 830.768677,114.627457 
	C832.966370,114.899170 834.707397,115.114426 837.766724,115.492661 
	C836.955750,118.163055 836.211182,120.614906 835.010193,123.082108 
z"/>
<path fill="#7B7B7B" opacity="1.000000" stroke="none" 
	d="
M990.603394,101.639526 
	C991.895630,102.374474 993.521484,103.097137 993.528442,103.835060 
	C993.675232,119.403740 993.639465,134.974136 993.639465,150.781052 
	C990.178040,150.781052 987.242371,150.781052 983.870239,150.781052 
	C983.870239,134.635422 983.870239,118.497406 983.870239,101.634354 
	C985.995911,101.634354 988.089539,101.634354 990.603394,101.639526 
z"/>
<path fill="#7B7B7B" opacity="1.000000" stroke="none" 
	d="
M653.810547,314.283142 
	C653.586182,298.008820 653.586182,282.123047 653.586182,265.955933 
	C657.076843,265.955933 660.122498,265.955933 663.417603,265.955933 
	C663.417603,282.307831 663.417603,298.337036 663.417603,314.671692 
	C660.171326,314.671692 657.103149,314.671692 653.810547,314.283142 
z"/>
<path fill="#7B7B7B" opacity="1.000000" stroke="none" 
	d="
M938.436951,205.144669 
	C938.437256,202.369202 938.437256,200.073883 938.437256,197.418945 
	C942.008240,197.418945 945.039124,197.418945 948.369141,197.418945 
	C948.369141,209.213043 948.369141,220.905533 948.369141,232.810425 
	C945.128845,232.810425 942.185486,232.810425 938.436646,232.810425 
	C938.436646,223.720108 938.436646,214.672470 938.436951,205.144669 
z"/>
<path fill="#7B7B7B" opacity="1.000000" stroke="none" 
	d="
M753.899536,279.047485 
	C755.450317,280.035919 757.497192,281.003571 757.519043,282.015076 
	C757.752014,292.782959 757.663757,303.557831 757.663757,314.674316 
	C754.208496,314.674316 751.147339,314.674316 747.772827,314.674316 
	C747.772827,302.984863 747.772827,291.282806 747.772827,279.047058 
	C749.888245,279.047058 751.671875,279.047058 753.899536,279.047485 
z"/>
<path fill="#7B7B7B" opacity="1.000000" stroke="none" 
	d="
M852.667847,125.047226 
	C852.667664,133.808731 852.667664,142.078964 852.667664,150.683563 
	C849.194397,150.683563 846.130310,150.683563 842.766724,150.683563 
	C842.766724,138.990280 842.766724,127.297417 842.766724,115.326088 
	C846.016541,115.326088 848.940674,115.326088 852.667969,115.326088 
	C852.667969,118.405266 852.667969,121.480606 852.667847,125.047226 
z"/>
<path fill="#7B7B7B" opacity="1.000000" stroke="none" 
	d="
M830.667847,215.000107 
	C830.667603,221.114380 830.667603,226.729431 830.667603,232.679840 
	C827.201782,232.679840 824.139160,232.679840 820.762329,232.679840 
	C820.762329,220.997757 820.762329,209.308670 820.762329,197.333435 
	C824.002991,197.333435 826.924438,197.333435 830.668030,197.333435 
	C830.668030,203.042267 830.668030,208.771576 830.667847,215.000107 
z"/>
<path fill="#7B7B7B" opacity="1.000000" stroke="none" 
	d="
M851.497314,110.848022 
	C848.451477,110.962692 845.830688,110.962692 842.824280,110.962692 
	C842.824280,107.909966 842.824280,105.079590 842.824280,101.936180 
	C846.048279,101.936180 849.074341,101.936180 852.885681,101.936180 
	C852.540039,105.092598 852.231140,107.912979 851.497314,110.848022 
z"/>
<path fill="#7B7B7B" opacity="1.000000" stroke="none" 
	d="
M757.643921,272.736694 
	C754.505432,274.013245 751.383301,274.853912 747.714600,275.841705 
	C747.714600,271.810150 747.714600,269.084930 747.714600,265.995514 
	C750.908020,265.995514 753.930359,265.995514 757.660278,265.995514 
	C757.660278,268.163483 757.660278,270.232147 757.643921,272.736694 
z"/>
<path fill="#7B7B7B" opacity="1.000000" stroke="none" 
	d="
M943.930176,183.633606 
	C952.510071,183.548157 947.021240,189.433365 948.994263,192.706116 
	C945.153442,192.706116 942.110046,192.706116 938.750122,192.706116 
	C938.750122,189.907410 938.750122,187.173904 938.750122,183.888779 
	C940.352051,183.802765 941.931396,183.717972 943.930176,183.633606 
z"/>
<path fill="#7B7B7B" opacity="1.000000" stroke="none" 
	d="
M820.495483,185.645798 
	C823.616577,184.503860 826.696838,183.772064 830.331665,182.908508 
	C830.331665,186.829849 830.331665,189.539017 830.331665,192.630219 
	C827.291931,192.630219 824.259033,192.630219 820.454712,192.630219 
	C820.454712,190.517807 820.454712,188.286865 820.495483,185.645798 
z"/>
<path fill="#FEFDFD" opacity="1.000000" stroke="none" 
	d="
M310.148743,137.020248 
	C283.972717,123.919884 258.170929,110.943596 231.445190,97.502617 
	C235.527817,95.562012 238.870804,94.010719 242.181458,92.393204 
	C263.842804,81.809990 285.472137,71.160378 307.199402,60.714436 
	C309.016632,59.840752 311.876068,59.468369 313.580414,60.277039 
	C337.742798,71.741592 361.790314,83.448257 385.857910,95.112259 
	C386.591003,95.467552 387.240875,95.994568 388.670685,96.922523 
	C382.583984,100.180237 376.989227,103.238419 371.337708,106.187813 
	C352.472992,116.032829 333.593506,125.849648 314.698456,135.636322 
	C313.395752,136.311081 311.918854,136.649506 310.148743,137.020248 
M307.248047,98.257744 
	C303.361420,96.012779 299.298828,94.019447 295.634125,91.457085 
	C291.360779,88.469177 288.100494,89.278152 284.442017,93.691879 
	C296.331329,100.434349 307.941467,107.031609 319.582947,113.573196 
	C320.054962,113.838440 320.952057,113.804604 321.432404,113.528999 
	C328.286621,109.596283 335.103119,105.597801 342.076416,101.528984 
	C336.795685,96.766098 336.429230,96.667519 332.880737,98.772507 
	C320.386200,106.184357 320.386200,106.184357 307.248047,98.257744 
z"/>
<path fill="#FEFDFD" opacity="1.000000" stroke="none" 
	d="
M236.863953,222.773071 
	C255.754501,213.599747 274.314301,204.581467 292.873657,195.562286 
	C296.017120,194.034683 299.433014,192.889816 302.244965,190.894409 
	C308.396698,186.529099 313.812683,187.855957 320.117706,191.044067 
	C341.037872,201.622253 362.248444,211.626038 383.340363,221.865067 
	C384.938843,222.641037 386.480499,223.534119 388.866669,224.810303 
	C381.734894,228.649323 375.393799,232.150345 368.974457,235.501373 
	C351.419037,244.665649 333.867615,253.839798 316.201691,262.787079 
	C314.302704,263.748840 311.207458,264.163635 309.434021,263.284729 
	C284.855988,251.104202 260.411591,238.653946 235.938385,226.262039 
	C235.362274,225.970322 234.830872,225.590286 233.793060,224.953537 
	C234.886719,224.144974 235.709885,223.536407 236.863953,222.773071 
M293.435211,234.049988 
	C298.932983,237.131088 304.812836,239.700912 309.817963,243.441254 
	C314.546844,246.975174 317.395386,244.781433 321.308014,241.780731 
	C317.053986,239.247360 313.285034,237.002884 309.113617,234.518707 
	C311.178345,233.251007 312.724915,232.301575 314.271332,231.351929 
	C317.789886,229.191223 322.275757,227.380142 321.672028,222.359558 
	C321.064789,217.310104 316.101135,216.274811 312.303101,214.377609 
	C311.871429,214.161972 311.337097,214.158417 310.856354,214.033478 
	C297.678375,210.608734 288.977509,219.551498 278.275757,225.120758 
	C283.666107,228.327469 288.217590,231.035141 293.435211,234.049988 
z"/>
<path fill="#FEFDFD" opacity="1.000000" stroke="none" 
	d="
M242.330750,173.329803 
	C225.325806,182.175919 208.597183,190.748215 192.013840,199.592880 
	C188.431870,201.503342 185.598190,201.694397 181.897842,199.785049 
	C157.541199,187.217361 133.060760,174.889587 108.139000,162.239059 
	C109.225357,161.430710 109.980705,160.663818 110.893143,160.219620 
	C134.672836,148.643661 158.445374,137.052094 182.308746,125.650764 
	C184.119720,124.785515 186.982620,124.496307 188.703751,125.313774 
	C212.574478,136.651337 236.332809,148.225555 260.108978,159.761856 
	C261.113464,160.249222 262.023834,160.930527 263.674408,161.952759 
	C256.311218,165.877213 249.485153,169.515381 242.330750,173.329803 
M173.975037,168.727982 
	C173.359222,168.472702 172.743423,168.217407 172.127625,167.962128 
	C180.434692,167.896912 187.982864,169.078827 195.574600,169.533691 
	C203.207626,169.991028 211.558014,174.139526 218.083954,166.091171 
	C207.842499,160.243805 197.584656,154.469955 187.412827,148.548325 
	C181.325821,145.004730 180.209335,145.073166 175.359375,150.461548 
	C182.053894,154.375778 188.717575,158.271973 196.397400,162.762299 
	C194.481049,162.878906 193.861374,163.003555 193.261566,162.940140 
	C183.026718,161.857819 172.759277,160.997086 162.577377,159.539963 
	C158.041992,158.890915 155.022308,160.714294 151.585526,163.477188 
	C152.649261,164.273041 153.357239,164.921188 154.168320,165.391449 
	C163.627274,170.875595 173.289749,176.038803 182.493408,181.920609 
	C187.144623,184.893112 190.198654,183.659073 193.857880,180.258087 
	C187.203964,176.410583 180.883713,172.756027 173.975037,168.727982 
z"/>
<path fill="#FEFDFD" opacity="1.000000" stroke="none" 
	d="
M75.532349,201.513824 
	C80.886543,191.955399 86.057198,182.717010 91.400841,173.169540 
	C92.946175,173.833496 94.304153,174.337006 95.591362,174.981796 
	C121.438980,187.929550 147.253311,200.944305 173.154053,213.784760 
	C176.114273,215.252304 177.142380,216.916611 177.090515,220.228409 
	C176.879883,233.681778 177.002914,247.140381 177.002914,261.704590 
	C141.530121,244.024277 106.818062,226.723145 71.614281,209.176910 
	C72.990311,206.471283 74.169556,204.152573 75.532349,201.513824 
z"/>
<path fill="#FEFDFD" opacity="1.000000" stroke="none" 
	d="
M289.881500,272.238586 
	C300.480194,275.096985 303.237213,281.765533 302.228027,291.980103 
	C301.207001,302.313995 302.002869,312.827423 302.002869,324.219421 
	C266.582275,306.559357 231.998520,289.316528 196.784256,271.759308 
	C199.466675,266.765839 201.981262,262.010559 204.565125,257.293213 
	C207.912354,251.182175 211.487457,245.188416 214.620712,238.970917 
	C216.191071,235.854782 217.791534,235.982742 220.501251,237.356247 
	C243.479431,249.003418 266.512573,260.542175 289.881500,272.238586 
z"/>
<path fill="#FEFEFE" opacity="1.000000" stroke="none" 
	d="
M319.001282,283.474579 
	C319.974731,281.699219 320.653198,279.808289 321.963135,279.121185 
	C347.725891,265.607697 373.552734,252.216156 399.390228,238.845596 
	C405.218262,235.829651 405.185516,235.949921 408.277832,241.534866 
	C413.748383,251.414993 419.318634,261.239929 425.125275,271.583435 
	C389.868225,289.142303 354.854523,306.579987 319.000336,324.436249 
	C319.000336,310.379608 319.000336,297.149567 319.001282,283.474579 
z"/>
<path fill="#FEFEFE" opacity="1.000000" stroke="none" 
	d="
M343.155945,183.803070 
	C336.056061,180.456635 329.368683,177.094299 322.554962,174.011185 
	C319.944458,172.829941 318.736847,171.413864 318.931000,168.401001 
	C319.262115,163.261826 317.458313,157.097214 319.726654,153.222000 
	C321.967834,149.393219 328.062439,147.713913 332.603638,145.355423 
	C355.790070,133.313522 379.020050,121.355515 402.239075,109.376389 
	C403.108551,108.927803 404.021759,108.563995 405.276123,107.997345 
	C411.922913,119.907791 418.455261,131.613205 425.200378,143.699875 
	C417.236847,147.683975 409.530487,151.569458 401.797882,155.402023 
	C383.454834,164.493500 365.101532,173.564285 346.743225,182.624908 
	C345.710236,183.134720 344.595001,183.477829 343.155945,183.803070 
z"/>
<path fill="#FCFAF9" opacity="1.000000" stroke="none" 
	d="
M266.317749,338.597961 
	C243.847443,327.275116 221.751678,316.007538 199.424759,305.218292 
	C194.533249,302.854584 192.000946,300.279327 193.047607,294.773743 
	C193.351624,293.174591 193.094299,291.468719 193.094299,288.926270 
	C195.023087,289.795837 196.452316,290.386566 197.834885,291.071411 
	C230.324280,307.164368 262.747009,323.394287 295.356445,339.240051 
	C300.604431,341.790161 303.149719,344.709656 302.060669,350.523773 
	C301.761566,352.120544 302.015198,353.820831 302.015198,356.794373 
	C289.709381,350.548920 278.159271,344.687012 266.317749,338.597961 
z"/>
<path fill="#FDFCFC" opacity="1.000000" stroke="none" 
	d="
M363.327820,321.313416 
	C385.076935,310.500214 406.496460,299.862579 428.921722,288.725494 
	C428.921722,292.971252 429.258240,296.550568 428.748108,300.004852 
	C428.557007,301.298706 426.569702,302.645233 425.106812,303.386383 
	C396.197937,318.032135 367.242432,332.585785 338.304962,347.175171 
	C332.108521,350.299286 325.945618,353.490051 319.796570,356.635101 
	C319.370239,355.965973 319.078217,355.719116 319.067780,355.460876 
	C318.592377,343.691132 318.594543,343.689575 329.089478,338.441010 
	C340.391571,332.788727 351.695251,327.139557 363.327820,321.313416 
z"/>
<path fill="#FCFAF9" opacity="1.000000" stroke="none" 
	d="
M77.932747,231.106995 
	C108.631653,246.305847 138.944702,261.443420 169.389389,276.311401 
	C174.524689,278.819275 178.233032,281.276947 176.200806,287.769867 
	C175.742828,289.233124 176.133484,290.961975 176.133484,293.273132 
	C165.186966,287.823425 154.960159,282.789154 144.784119,277.654266 
	C121.941849,266.127869 99.131927,254.537399 76.293999,243.002396 
	C66.975517,238.295792 66.958023,238.330429 68.654282,226.731674 
	C71.748856,228.194138 74.669998,229.574615 77.932747,231.106995 
z"/>
<path fill="#FBF9F8" opacity="1.000000" stroke="none" 
	d="
M212.017303,116.868156 
	C213.211807,113.995735 214.434586,111.500000 215.779785,108.754395 
	C217.723343,109.641502 219.225006,110.270905 220.677612,110.998276 
	C246.389771,123.873032 272.072601,136.806839 297.834503,149.581131 
	C300.881500,151.092026 302.419189,152.733566 302.102386,156.337799 
	C301.739227,160.469757 302.062653,164.658905 301.992401,168.821609 
	C301.969513,170.177155 301.647125,171.527679 301.461700,172.880493 
	C301.001465,172.991882 300.541229,173.103271 300.081024,173.214645 
	C298.365173,170.325653 296.168304,167.613617 295.027710,164.513016 
	C292.120300,156.609558 285.885132,152.909439 278.714325,149.632736 
	C263.157166,142.523911 247.795914,134.983749 232.399231,127.527702 
	C225.558945,124.215187 218.826797,120.679321 212.017303,116.868156 
z"/>
<path fill="#FDFBFB" opacity="1.000000" stroke="none" 
	d="
M202.190491,213.223694 
	C228.284119,199.640488 254.072662,186.267151 280.219238,172.708145 
	C281.693481,175.556915 282.892273,177.873459 284.411896,180.809937 
	C276.166534,184.871536 268.183228,188.851501 260.158936,192.746918 
	C243.265564,200.947830 226.303207,209.009277 209.503494,217.396973 
	C207.350922,218.471695 205.650818,220.941208 204.343933,223.125275 
	C201.037155,228.651596 198.073578,234.383286 194.032166,239.890015 
	C194.032166,232.892929 193.420288,225.809082 194.392761,218.949860 
	C194.697525,216.800232 199.267654,215.255295 202.190491,213.223694 
z"/>
<path fill="#FDFBFB" opacity="1.000000" stroke="none" 
	d="
M418.008118,179.010864 
	C406.129913,185.049423 394.488892,190.746735 383.109985,196.926788 
	C378.585999,199.383865 374.719025,200.169861 370.357574,196.937271 
	C368.540802,195.590714 366.266052,194.862152 363.188934,193.358887 
	C385.364716,182.350159 406.685303,171.765976 428.926239,160.724915 
	C428.926239,164.884079 429.136719,168.292343 428.809052,171.648041 
	C428.698273,172.782684 427.426819,174.116196 426.334137,174.779999 
	C423.786377,176.327850 421.025116,177.524338 418.008118,179.010864 
z"/>
<path fill="#FCFAF9" opacity="1.000000" stroke="none" 
	d="
M546.384888,287.582092 
	C547.331177,290.072479 548.120300,292.211182 549.066528,294.775848 
	C544.987122,294.775848 541.434265,294.775848 537.175781,294.775848 
	C538.971619,289.756226 540.682861,284.973206 542.394043,280.190186 
	C542.775208,280.168488 543.156311,280.146790 543.537476,280.125092 
	C544.434204,282.493561 545.330994,284.862000 546.384888,287.582092 
z"/>
<path fill="#FDFBFB" opacity="1.000000" stroke="none" 
	d="
M689.421936,124.178772 
	C695.439880,121.605225 699.481995,123.294640 700.628479,128.918533 
	C701.177917,131.613632 701.114258,134.567215 700.672668,137.297699 
	C700.095947,140.863403 697.670166,143.988388 694.045776,143.348846 
	C691.500122,142.899612 688.419006,140.352600 687.319824,137.946243 
	C685.268555,133.455383 685.588806,128.547058 689.421936,124.178772 
z"/>
<path fill="#FCFAF9" opacity="1.000000" stroke="none" 
	d="
M914.800903,303.950989 
	C914.493835,299.286713 913.765747,294.846283 914.547852,290.690002 
	C914.887085,288.887604 918.394043,286.425018 920.358337,286.515564 
	C922.609985,286.619293 925.825378,288.779968 926.676636,290.847900 
	C927.913208,293.851776 928.171692,297.758820 927.399353,300.927795 
	C926.802063,303.378571 924.332703,306.349945 922.042297,307.103088 
	C920.199951,307.708954 917.379150,305.339447 914.800903,303.950989 
z"/>
<path fill="#FBF9F8" opacity="1.000000" stroke="none" 
	d="
M634.972717,301.671143 
	C634.303833,306.439911 631.635437,308.479523 627.404663,308.135254 
	C626.144836,308.032715 623.880310,306.566742 623.969055,306.051697 
	C624.297302,304.146912 625.307556,300.906403 626.260010,300.835541 
	C629.093506,300.624664 632.485901,295.785828 634.972717,301.671143 
z"/>
<path fill="#FBF9F8" opacity="1.000000" stroke="none" 
	d="
M875.688538,307.845032 
	C872.421692,304.017975 872.831116,301.707977 876.887390,300.330597 
	C879.314514,299.506409 881.911133,299.181458 884.466797,298.624420 
	C885.386169,305.881012 883.008118,308.382874 875.688538,307.845032 
z"/>
<path fill="#FBF9F8" opacity="1.000000" stroke="none" 
	d="
M886.429565,224.899155 
	C884.000610,221.444809 885.763977,219.567444 888.529724,218.503448 
	C890.961914,217.567780 893.612000,217.198502 897.812073,216.179810 
	C896.599731,219.652100 896.436829,223.050964 894.746826,224.196182 
	C892.759155,225.543137 889.446655,224.935104 886.429565,224.899155 
z"/>
<path fill="#FBF9F8" opacity="1.000000" stroke="none" 
	d="
M801.920166,135.990570 
	C801.455688,142.000427 798.448730,145.140366 794.127075,144.086807 
	C792.661621,143.729538 790.919495,142.167175 790.471252,140.778625 
	C790.158997,139.811310 791.581604,137.375046 792.674011,137.038513 
	C795.610352,136.133911 798.785339,136.003860 801.920166,135.990570 
z"/>
<path fill="#FBF9F8" opacity="1.000000" stroke="none" 
	d="
M961.179077,143.583862 
	C959.524597,143.923187 957.975708,144.560730 956.975647,144.073013 
	C955.515991,143.361206 953.811462,142.012207 953.434753,140.606842 
	C953.169312,139.616760 954.655334,137.452774 955.852600,136.918777 
	C958.502686,135.736771 961.463623,135.251724 964.503296,134.426651 
	C965.449097,138.425949 964.931641,141.393845 961.179077,143.583862 
z"/>
<path fill="#FDFCFC" opacity="1.000000" stroke="none" 
	d="
M881.819092,142.204239 
	C875.682251,143.927063 872.379578,142.561234 870.522827,137.898865 
	C868.510742,132.846283 870.134460,126.322083 873.999451,123.929512 
	C877.622253,121.686859 881.994202,122.797516 884.360168,126.561508 
	C887.384583,131.373062 886.528076,137.362320 881.819092,142.204239 
z"/>
<path fill="#FDFCFC" opacity="1.000000" stroke="none" 
	d="
M977.781189,205.904022 
	C982.519836,210.690247 983.393188,216.648849 980.377563,221.521637 
	C978.228821,224.993668 973.857727,226.316864 970.413452,224.537872 
	C966.342102,222.434998 964.443909,215.502823 966.500916,210.249741 
	C968.309387,205.631592 971.809875,204.174194 977.781189,205.904022 
z"/>
<path fill="#FEFDFD" opacity="1.000000" stroke="none" 
	d="
M591.569275,143.046112 
	C586.633118,143.742142 583.841309,141.497498 582.367004,137.486389 
	C580.714050,132.989380 582.098694,126.977631 585.119080,124.551521 
	C588.381897,121.930717 593.284851,122.435722 595.814026,125.653114 
	C600.139526,131.155609 598.261108,139.626526 591.569275,143.046112 
z"/>
<path fill="#FEFDFD" opacity="1.000000" stroke="none" 
	d="
M598.014893,215.825729 
	C597.407227,220.873184 595.785583,224.663712 590.395081,225.161682 
	C586.275391,225.542252 583.823975,223.237869 582.447571,219.695389 
	C580.530029,214.760056 582.139954,208.479172 585.744812,206.113083 
	C589.854248,203.415787 594.752747,204.861191 596.848145,209.645798 
	C597.617371,211.402130 597.656738,213.478104 598.014893,215.825729 
z"/>
<path fill="#C0998D" opacity="1.000000" stroke="none" 
	d="
M307.558105,98.453278 
	C320.386200,106.184357 320.386200,106.184357 332.880737,98.772507 
	C336.429230,96.667519 336.795685,96.766098 342.076416,101.528984 
	C335.103119,105.597801 328.286621,109.596283 321.432404,113.528999 
	C320.952057,113.804604 320.054962,113.838440 319.582947,113.573196 
	C307.941467,107.031609 296.331329,100.434349 284.442017,93.691879 
	C288.100494,89.278152 291.360779,88.469177 295.634125,91.457085 
	C299.298828,94.019447 303.361420,96.012779 307.558105,98.453278 
z"/>
<path fill="#C0998D" opacity="1.000000" stroke="none" 
	d="
M293.102142,233.896393 
	C288.217590,231.035141 283.666107,228.327469 278.275757,225.120758 
	C288.977509,219.551498 297.678375,210.608734 310.856354,214.033478 
	C311.337097,214.158417 311.871429,214.161972 312.303101,214.377609 
	C316.101135,216.274811 321.064789,217.310104 321.672028,222.359558 
	C322.275757,227.380142 317.789886,229.191223 314.271332,231.351929 
	C312.724915,232.301575 311.178345,233.251007 309.113617,234.518707 
	C313.285034,237.002884 317.053986,239.247360 321.308014,241.780731 
	C317.395386,244.781433 314.546844,246.975174 309.817963,243.441254 
	C304.812836,239.700912 298.932983,237.131088 293.102142,233.896393 
M302.543945,219.958633 
	C299.051056,221.184433 295.558167,222.410233 290.830414,224.069397 
	C293.976990,225.983902 295.927856,226.912460 297.573151,228.224228 
	C301.310333,231.203888 304.681763,230.008011 307.969299,227.580002 
	C311.196594,225.196487 310.886719,222.435867 307.211609,220.885651 
	C306.018555,220.382416 304.659424,220.272842 302.543945,219.958633 
z"/>
<path fill="#C0998D" opacity="1.000000" stroke="none" 
	d="
M174.269257,168.914734 
	C180.883713,172.756027 187.203964,176.410583 193.857880,180.258087 
	C190.198654,183.659073 187.144623,184.893112 182.493408,181.920609 
	C173.289749,176.038803 163.627274,170.875595 154.168320,165.391449 
	C153.357239,164.921188 152.649261,164.273041 151.585526,163.477188 
	C155.022308,160.714294 158.041992,158.890915 162.577377,159.539963 
	C172.759277,160.997086 183.026718,161.857819 193.261566,162.940140 
	C193.861374,163.003555 194.481049,162.878906 196.397400,162.762299 
	C188.717575,158.271973 182.053894,154.375778 175.359375,150.461548 
	C180.209335,145.073166 181.325821,145.004730 187.412827,148.548325 
	C197.584656,154.469955 207.842499,160.243805 218.083954,166.091171 
	C211.558014,174.139526 203.207626,169.991028 195.574600,169.533691 
	C187.982864,169.078827 180.434692,167.896912 172.127625,167.962128 
	C172.743423,168.217407 173.359222,168.472702 174.269257,168.914734 
z"/>
<path fill="#FBF9F8" opacity="1.000000" stroke="none" 
	d="
M302.960114,219.970917 
	C304.659424,220.272842 306.018555,220.382416 307.211609,220.885651 
	C310.886719,222.435867 311.196594,225.196487 307.969299,227.580002 
	C304.681763,230.008011 301.310333,231.203888 297.573151,228.224228 
	C295.927856,226.912460 293.976990,225.983902 290.830414,224.069397 
	C295.558167,222.410233 299.051056,221.184433 302.960114,219.970917 
z"/>
</svg>